G04*
G04 #@! TF.GenerationSoftware,Altium Limited,Altium Designer,21.0.9 (235)*
G04*
G04 Layer_Color=8388736*
%FSTAX24Y24*%
%MOIN*%
G70*
G04*
G04 #@! TF.SameCoordinates,C81BF7DB-63EA-445F-9019-DF517AEC57AA*
G04*
G04*
G04 #@! TF.FilePolarity,Negative*
G04*
G01*
G75*
%ADD42O,0.0749X0.0316*%
%ADD43R,0.0281X0.0281*%
%ADD44R,0.0281X0.0281*%
%ADD45R,0.0316X0.0332*%
%ADD46R,0.0395X0.0867*%
%ADD47R,0.0513X0.0946*%
%ADD48R,0.0297X0.0257*%
%ADD49R,0.0415X0.0454*%
%ADD50R,0.0257X0.0297*%
%ADD51R,0.0415X0.0159*%
%ADD52R,0.1655X0.1655*%
%ADD53R,0.0159X0.0415*%
%ADD54R,0.0375X0.0454*%
%ADD55R,0.0454X0.0375*%
%ADD56R,0.0474X0.0627*%
%ADD57R,0.0552X0.0316*%
%ADD58R,0.0178X0.0375*%
%ADD59R,0.0257X0.0572*%
%ADD60R,0.1773X0.1419*%
%ADD61O,0.0178X0.0434*%
%ADD62O,0.0434X0.0178*%
%ADD63R,0.1458X0.1458*%
%ADD64R,0.0336X0.0415*%
%ADD65R,0.0415X0.0336*%
%ADD66R,0.0867X0.0710*%
%ADD67O,0.0867X0.0710*%
%ADD68R,0.0710X0.0867*%
%ADD69O,0.0710X0.0867*%
%ADD70C,0.1261*%
%ADD71C,0.0867*%
D42*
X026122Y029254D02*
D03*
Y028754D02*
D03*
Y028254D02*
D03*
Y027754D02*
D03*
X028917Y029254D02*
D03*
Y028754D02*
D03*
Y028254D02*
D03*
Y027754D02*
D03*
D43*
X034331Y030571D02*
D03*
Y030217D02*
D03*
X033937Y030571D02*
D03*
Y030217D02*
D03*
X033465Y029823D02*
D03*
Y029469D02*
D03*
X030439Y028721D02*
D03*
Y028366D02*
D03*
X030118Y032618D02*
D03*
Y032972D02*
D03*
X025906Y024429D02*
D03*
Y024783D02*
D03*
X041053Y031093D02*
D03*
Y031447D02*
D03*
X040699Y031093D02*
D03*
Y031447D02*
D03*
X041486Y028494D02*
D03*
Y02814D02*
D03*
X031339Y032972D02*
D03*
Y032618D02*
D03*
X038093Y029516D02*
D03*
Y029871D02*
D03*
X025906Y025217D02*
D03*
Y025571D02*
D03*
X041486Y029321D02*
D03*
Y028967D02*
D03*
D44*
X033169Y030197D02*
D03*
X033524D02*
D03*
X034665Y029803D02*
D03*
X03502D02*
D03*
X032579Y028898D02*
D03*
X032933D02*
D03*
X032579Y028543D02*
D03*
X032933D02*
D03*
X032579Y028189D02*
D03*
X032933D02*
D03*
X031358Y028701D02*
D03*
X031713D02*
D03*
Y027283D02*
D03*
X031358D02*
D03*
X026476Y027165D02*
D03*
X026122D02*
D03*
X029035Y03248D02*
D03*
X028681D02*
D03*
X029035Y032126D02*
D03*
X028681D02*
D03*
X041309Y027569D02*
D03*
X040955D02*
D03*
X040128D02*
D03*
X040482D02*
D03*
X038907D02*
D03*
X038553D02*
D03*
X038081D02*
D03*
X037726D02*
D03*
X029154Y02252D02*
D03*
X028799D02*
D03*
X03812Y030994D02*
D03*
X038474D02*
D03*
X03935Y027205D02*
D03*
X039705D02*
D03*
X040128Y030994D02*
D03*
X039774D02*
D03*
X039301D02*
D03*
X038947D02*
D03*
D45*
X033535Y030591D02*
D03*
X033157D02*
D03*
X034244Y029803D02*
D03*
X033866D02*
D03*
D46*
X03466Y028933D02*
D03*
D47*
X034069Y028254D02*
D03*
X035251D02*
D03*
D48*
X030799Y028374D02*
D03*
Y028714D02*
D03*
X030236Y037113D02*
D03*
Y037453D02*
D03*
Y037822D02*
D03*
Y038162D02*
D03*
X0381Y031715D02*
D03*
Y031375D02*
D03*
X030945Y038044D02*
D03*
Y037704D02*
D03*
X031339Y038044D02*
D03*
Y037704D02*
D03*
X030945Y038452D02*
D03*
Y038792D02*
D03*
X025906Y026011D02*
D03*
Y026351D02*
D03*
X025906Y023241D02*
D03*
Y022901D02*
D03*
X031339Y038452D02*
D03*
Y038792D02*
D03*
X025906Y023649D02*
D03*
Y023989D02*
D03*
X031732Y038452D02*
D03*
Y038792D02*
D03*
X0381Y026848D02*
D03*
Y027188D02*
D03*
X038888Y026848D02*
D03*
Y027188D02*
D03*
X040108Y026848D02*
D03*
Y027188D02*
D03*
X041722Y027202D02*
D03*
Y027542D02*
D03*
X040148Y031715D02*
D03*
Y031375D02*
D03*
X039321Y031715D02*
D03*
Y031375D02*
D03*
D49*
X031762Y028278D02*
D03*
X031309D02*
D03*
Y027707D02*
D03*
X031762D02*
D03*
D50*
X028176Y027205D02*
D03*
X028516D02*
D03*
X030578Y032953D02*
D03*
X030918D02*
D03*
X028688Y031772D02*
D03*
X029028D02*
D03*
X028688Y031417D02*
D03*
X029028D02*
D03*
X028688Y030984D02*
D03*
X029028D02*
D03*
X028688Y03063D02*
D03*
X029028D02*
D03*
X028688Y030276D02*
D03*
X029028D02*
D03*
X044343Y031732D02*
D03*
X044003D02*
D03*
Y036772D02*
D03*
X044343D02*
D03*
X044003Y037795D02*
D03*
X044343D02*
D03*
X026902Y037126D02*
D03*
X026562D02*
D03*
X026902Y036142D02*
D03*
X026562D02*
D03*
X029737Y037874D02*
D03*
X029397D02*
D03*
X037576Y029065D02*
D03*
X037916D02*
D03*
X028058Y02252D02*
D03*
X028398D02*
D03*
X04328Y036772D02*
D03*
X04294D02*
D03*
X04328Y035787D02*
D03*
X04294D02*
D03*
X04328Y034803D02*
D03*
X04294D02*
D03*
X04328Y03378D02*
D03*
X04294D02*
D03*
X04328Y032756D02*
D03*
X04294D02*
D03*
X04328Y031732D02*
D03*
X04294D02*
D03*
X039107Y035551D02*
D03*
X038767D02*
D03*
X039107Y036234D02*
D03*
X038767D02*
D03*
X044003Y035787D02*
D03*
X044343D02*
D03*
X044003Y032756D02*
D03*
X044343D02*
D03*
X044003Y03378D02*
D03*
X044343D02*
D03*
X044003Y034803D02*
D03*
X044343D02*
D03*
X026509Y031654D02*
D03*
X026169D02*
D03*
X026509Y031299D02*
D03*
X026169D02*
D03*
X037383Y029503D02*
D03*
X037723D02*
D03*
X037916Y028356D02*
D03*
X037576D02*
D03*
X026902Y03815D02*
D03*
X026562D02*
D03*
X026902Y035157D02*
D03*
X026562D02*
D03*
X044343Y029528D02*
D03*
X044003D02*
D03*
X026902Y034134D02*
D03*
X026562D02*
D03*
X044343Y028543D02*
D03*
X044003D02*
D03*
X026902Y03315D02*
D03*
X026562D02*
D03*
X039633Y036234D02*
D03*
X039973D02*
D03*
X039633Y035551D02*
D03*
X039973D02*
D03*
X04328Y037795D02*
D03*
X04294D02*
D03*
X028516Y026693D02*
D03*
X028176D02*
D03*
X037576Y028711D02*
D03*
X037916D02*
D03*
X042207Y028514D02*
D03*
X041867D02*
D03*
X042207Y029301D02*
D03*
X041867D02*
D03*
D51*
X032441Y031732D02*
D03*
Y031575D02*
D03*
Y031417D02*
D03*
X029764Y029685D02*
D03*
Y029843D02*
D03*
Y03D02*
D03*
Y030157D02*
D03*
Y030315D02*
D03*
Y030472D02*
D03*
Y03063D02*
D03*
Y030787D02*
D03*
Y030945D02*
D03*
Y031102D02*
D03*
Y03126D02*
D03*
Y031417D02*
D03*
Y031575D02*
D03*
Y031732D02*
D03*
X032441Y03126D02*
D03*
Y031102D02*
D03*
Y030945D02*
D03*
Y030787D02*
D03*
Y03063D02*
D03*
Y030472D02*
D03*
Y030315D02*
D03*
Y030157D02*
D03*
Y03D02*
D03*
Y029843D02*
D03*
Y029685D02*
D03*
D52*
X031102Y030709D02*
D03*
D53*
X032126Y02937D02*
D03*
X031969D02*
D03*
X031811D02*
D03*
X031654D02*
D03*
X031496D02*
D03*
X031339D02*
D03*
X031181D02*
D03*
X031024D02*
D03*
X030866D02*
D03*
X030709D02*
D03*
X030551D02*
D03*
X030394D02*
D03*
X030236D02*
D03*
X030079D02*
D03*
Y032047D02*
D03*
X030236D02*
D03*
X030394D02*
D03*
X030551D02*
D03*
X030709D02*
D03*
X030866D02*
D03*
X031024D02*
D03*
X031181D02*
D03*
X031339D02*
D03*
X031496D02*
D03*
X031654D02*
D03*
X031811D02*
D03*
X031969D02*
D03*
X032126D02*
D03*
D54*
X034813Y030591D02*
D03*
X035344D02*
D03*
D55*
X028701Y036939D02*
D03*
Y03747D02*
D03*
X02811D02*
D03*
Y036939D02*
D03*
D56*
X028886Y035906D02*
D03*
X029618D02*
D03*
D57*
X029528Y037008D02*
D03*
D58*
X029823Y037388D02*
D03*
X029626D02*
D03*
X029429D02*
D03*
X029232D02*
D03*
X029823Y036628D02*
D03*
X029626D02*
D03*
X029429D02*
D03*
X029232D02*
D03*
D59*
X028506Y02613D02*
D03*
X028006D02*
D03*
X027506D02*
D03*
X027006D02*
D03*
X028506Y023083D02*
D03*
X028006D02*
D03*
X027506D02*
D03*
X027006D02*
D03*
D60*
X027756Y024606D02*
D03*
D61*
X038947Y028159D02*
D03*
X039144D02*
D03*
X039341D02*
D03*
X039537D02*
D03*
X039734D02*
D03*
X039931D02*
D03*
X040128D02*
D03*
X040325D02*
D03*
Y030049D02*
D03*
X040128D02*
D03*
X039931D02*
D03*
X039734D02*
D03*
X039537D02*
D03*
X039341D02*
D03*
X039144D02*
D03*
X038947D02*
D03*
D62*
X040581Y028415D02*
D03*
Y028612D02*
D03*
Y028809D02*
D03*
Y029006D02*
D03*
Y029203D02*
D03*
Y0294D02*
D03*
Y029596D02*
D03*
Y029793D02*
D03*
X038691D02*
D03*
Y029596D02*
D03*
Y0294D02*
D03*
Y029203D02*
D03*
Y029006D02*
D03*
Y028809D02*
D03*
Y028612D02*
D03*
Y028415D02*
D03*
D63*
X039636Y029104D02*
D03*
D64*
X028346Y040315D02*
D03*
X027795D02*
D03*
D65*
X043504Y038701D02*
D03*
Y039252D02*
D03*
D66*
X040433Y03872D02*
D03*
X025039Y032008D02*
D03*
Y028858D02*
D03*
X045472Y029528D02*
D03*
Y037795D02*
D03*
X035433Y035866D02*
D03*
X025039Y03815D02*
D03*
Y040315D02*
D03*
X032795Y035866D02*
D03*
D67*
X040433Y037736D02*
D03*
X025039Y030008D02*
D03*
Y031008D02*
D03*
Y023858D02*
D03*
Y024858D02*
D03*
Y025858D02*
D03*
Y026858D02*
D03*
Y027858D02*
D03*
X045472Y028528D02*
D03*
Y030795D02*
D03*
Y031795D02*
D03*
Y032795D02*
D03*
Y033795D02*
D03*
Y034795D02*
D03*
Y035795D02*
D03*
Y036795D02*
D03*
X035433Y03685D02*
D03*
X025039Y03715D02*
D03*
Y03615D02*
D03*
Y03515D02*
D03*
Y03415D02*
D03*
Y03315D02*
D03*
Y039315D02*
D03*
X032795Y03685D02*
D03*
D68*
X03248Y040748D02*
D03*
D69*
X03348D02*
D03*
X03448D02*
D03*
X03548D02*
D03*
X03648D02*
D03*
X03748D02*
D03*
X03848D02*
D03*
X03948D02*
D03*
X04048D02*
D03*
X04148D02*
D03*
X04248D02*
D03*
X04348D02*
D03*
D70*
X037795Y038583D02*
D03*
X044094Y024409D02*
D03*
X03189D02*
D03*
D71*
X035433Y038583D02*
D03*
X044094Y022638D02*
D03*
X03189D02*
D03*
M02*
