G04*
G04 #@! TF.GenerationSoftware,Altium Limited,Altium Designer,21.0.9 (235)*
G04*
G04 Layer_Color=128*
%FSTAX24Y24*%
%MOIN*%
G70*
G04*
G04 #@! TF.SameCoordinates,C81BF7DB-63EA-445F-9019-DF517AEC57AA*
G04*
G04*
G04 #@! TF.FilePolarity,Positive*
G04*
G01*
G75*
%ADD90C,0.0020*%
D90*
X040276Y03872D02*
X040591D01*
X040433Y038563D02*
Y038878D01*
X040276Y037736D02*
X040591D01*
X040433Y037579D02*
Y037894D01*
X024843Y030008D02*
X025236D01*
X025039Y029811D02*
Y030205D01*
X024843Y031008D02*
X025236D01*
X025039Y030811D02*
Y031205D01*
X024843Y032008D02*
X025236D01*
X025039Y031811D02*
Y032205D01*
X032283Y040748D02*
X032677D01*
X03248Y040551D02*
Y040945D01*
X033283Y040748D02*
X033677D01*
X03348Y040551D02*
Y040945D01*
X034283Y040748D02*
X034677D01*
X03448Y040551D02*
Y040945D01*
X035283Y040748D02*
X035677D01*
X03548Y040551D02*
Y040945D01*
X036283Y040748D02*
X036677D01*
X03648Y040551D02*
Y040945D01*
X037283Y040748D02*
X037677D01*
X03748Y040551D02*
Y040945D01*
X038283Y040748D02*
X038677D01*
X03848Y040551D02*
Y040945D01*
X039283Y040748D02*
X039677D01*
X03948Y040551D02*
Y040945D01*
X040283Y040748D02*
X040677D01*
X04048Y040551D02*
Y040945D01*
X041283Y040748D02*
X041677D01*
X04148Y040551D02*
Y040945D01*
X042283Y040748D02*
X042677D01*
X04248Y040551D02*
Y040945D01*
X043283Y040748D02*
X043677D01*
X04348Y040551D02*
Y040945D01*
X024843Y023858D02*
X025236D01*
X025039Y023661D02*
Y024055D01*
X024843Y024858D02*
X025236D01*
X025039Y024661D02*
Y025055D01*
X024843Y025858D02*
X025236D01*
X025039Y025661D02*
Y026055D01*
X024843Y026858D02*
X025236D01*
X025039Y026661D02*
Y027055D01*
X024843Y027858D02*
X025236D01*
X025039Y027661D02*
Y028055D01*
X024843Y028858D02*
X025236D01*
X025039Y028661D02*
Y029055D01*
X045276Y028528D02*
X045669D01*
X045472Y028331D02*
Y028724D01*
X045276Y029528D02*
X045669D01*
X045472Y029331D02*
Y029724D01*
X045276Y030795D02*
X045669D01*
X045472Y030598D02*
Y030992D01*
X045276Y031795D02*
X045669D01*
X045472Y031598D02*
Y031992D01*
X045276Y032795D02*
X045669D01*
X045472Y032598D02*
Y032992D01*
X045276Y033795D02*
X045669D01*
X045472Y033598D02*
Y033992D01*
X045276Y034795D02*
X045669D01*
X045472Y034598D02*
Y034992D01*
X045276Y035795D02*
X045669D01*
X045472Y035598D02*
Y035992D01*
X045276Y036795D02*
X045669D01*
X045472Y036598D02*
Y036992D01*
X045276Y037795D02*
X045669D01*
X045472Y037598D02*
Y037992D01*
X035276Y03685D02*
X035591D01*
X035433Y036693D02*
Y037008D01*
X035276Y035866D02*
X035591D01*
X035433Y035709D02*
Y036024D01*
X024843Y03815D02*
X025236D01*
X025039Y037953D02*
Y038346D01*
X024843Y03715D02*
X025236D01*
X025039Y036953D02*
Y037346D01*
X024843Y03615D02*
X025236D01*
X025039Y035953D02*
Y036346D01*
X024843Y03515D02*
X025236D01*
X025039Y034953D02*
Y035346D01*
X024843Y03415D02*
X025236D01*
X025039Y033953D02*
Y034346D01*
X024843Y03315D02*
X025236D01*
X025039Y032953D02*
Y033346D01*
X024843Y040315D02*
X025236D01*
X025039Y040118D02*
Y040512D01*
X024843Y039315D02*
X025236D01*
X025039Y039118D02*
Y039512D01*
X032638Y03685D02*
X032953D01*
X032795Y036693D02*
Y037008D01*
X032638Y035866D02*
X032953D01*
X032795Y035709D02*
Y036024D01*
X037205Y038583D02*
X038386D01*
X037795Y037992D02*
Y039173D01*
X035039Y038583D02*
X035827D01*
X035433Y038189D02*
Y038976D01*
X043504Y024409D02*
X044685D01*
X044094Y023819D02*
Y025D01*
X043701Y022638D02*
X044488D01*
X044094Y022244D02*
Y023031D01*
X031496Y022638D02*
X032283D01*
X03189Y022244D02*
Y023031D01*
X031299Y024409D02*
X03248D01*
X03189Y023819D02*
Y025D01*
X02912Y023084D02*
X029239D01*
X029179Y023024D02*
Y023143D01*
X02776Y027204D02*
X027878D01*
X027819Y027144D02*
Y027263D01*
X02673Y029254D02*
X026848D01*
X026789Y029194D02*
Y029313D01*
X03009Y027124D02*
X030208D01*
X030149Y027064D02*
Y027183D01*
X03038Y028134D02*
X030498D01*
X030439Y028074D02*
Y028193D01*
X03037Y028954D02*
X030489D01*
X030429Y028894D02*
Y029013D01*
X02747Y032274D02*
X027589D01*
X027529Y032214D02*
Y032333D01*
X02747Y031977D02*
X027589D01*
X027529Y031918D02*
Y032036D01*
X03022Y040334D02*
X030338D01*
X030279Y040274D02*
Y040393D01*
X02885Y040664D02*
X028969D01*
X028909Y040604D02*
Y040723D01*
X02886Y041104D02*
X028979D01*
X028919Y041044D02*
Y041163D01*
X02922Y040344D02*
X029339D01*
X029279Y040284D02*
Y040403D01*
X04115Y039364D02*
X041269D01*
X041209Y039304D02*
Y039423D01*
X04059Y040034D02*
X040708D01*
X040649Y039974D02*
Y040093D01*
X03975Y039954D02*
X039869D01*
X039809Y039894D02*
Y040013D01*
X03878Y038744D02*
X038898D01*
X038839Y038684D02*
Y038803D01*
X03872Y039404D02*
X038839D01*
X038779Y039344D02*
Y039463D01*
X0382Y039794D02*
X038319D01*
X038259Y039734D02*
Y039853D01*
X02718Y029664D02*
X027299D01*
X027239Y029604D02*
Y029723D01*
X02625Y029714D02*
X026369D01*
X026309Y029654D02*
Y029773D01*
X02723Y027094D02*
X027348D01*
X027289Y027034D02*
Y027153D01*
X02687Y027124D02*
X026988D01*
X026929Y027064D02*
Y027183D01*
X02813Y021894D02*
X028249D01*
X028189Y021834D02*
Y021953D01*
X02699Y021894D02*
X027109D01*
X027049Y021834D02*
Y021953D01*
X02906Y024104D02*
X029179D01*
X029119Y024044D02*
Y024163D01*
X02907Y024964D02*
X029188D01*
X029129Y024904D02*
Y025023D01*
X044272Y03063D02*
X04439D01*
X044331Y030571D02*
Y030689D01*
X043957Y031063D02*
X044075D01*
X044016Y031004D02*
Y031122D01*
X044685Y030849D02*
X044803D01*
X044744Y03079D02*
Y030908D01*
X041594Y035945D02*
X041713D01*
X041654Y035886D02*
Y036004D01*
X040532Y035157D02*
X04065D01*
X040591Y035098D02*
Y035217D01*
X039154Y034764D02*
X039272D01*
X039213Y034705D02*
Y034823D01*
X038524Y034764D02*
X038642D01*
X038583Y034705D02*
Y034823D01*
X037894Y034764D02*
X038012D01*
X037953Y034705D02*
Y034823D01*
X036437Y03185D02*
X036555D01*
X036496Y031791D02*
Y031909D01*
X036909Y032323D02*
X037028D01*
X036969Y032264D02*
Y032382D01*
X037697Y032756D02*
X037815D01*
X037756Y032697D02*
Y032815D01*
X03876Y032756D02*
X038878D01*
X038819Y032697D02*
Y032815D01*
X029744Y035236D02*
X029862D01*
X029803Y035177D02*
Y035295D01*
X033327Y035276D02*
X033445D01*
X033386Y035217D02*
Y035335D01*
X034626Y035276D02*
X034744D01*
X034685Y035217D02*
Y035335D01*
X036476Y035512D02*
X036594D01*
X036535Y035453D02*
Y035571D01*
X037224Y03622D02*
X037343D01*
X037283Y036161D02*
Y03628D01*
X038209Y037362D02*
X038327D01*
X038268Y037303D02*
Y037421D01*
X037721Y037351D02*
X037839D01*
X03778Y037292D02*
Y03741D01*
X034311Y03685D02*
X034429D01*
X03437Y036791D02*
Y036909D01*
X033839Y03685D02*
X033957D01*
X033898Y036791D02*
Y036909D01*
X029075Y033819D02*
X029193D01*
X029134Y03376D02*
Y033878D01*
X028642Y03378D02*
X02876D01*
X028701Y03372D02*
Y033839D01*
X027106Y033543D02*
X027224D01*
X027165Y033484D02*
Y033602D01*
X026555Y033583D02*
X026673D01*
X026614Y033524D02*
Y033642D01*
X031988Y038031D02*
X032106D01*
X032047Y037972D02*
Y038091D01*
X032028Y038425D02*
X032146D01*
X032087Y038366D02*
Y038484D01*
X0314Y040344D02*
X031518D01*
X031459Y040284D02*
Y040403D01*
X03139Y041094D02*
X031509D01*
X031449Y041034D02*
Y041153D01*
X028051Y038543D02*
X028169D01*
X02811Y038484D02*
Y038602D01*
X027146Y038819D02*
X027264D01*
X027205Y03876D02*
Y038878D01*
X026476Y039055D02*
X026594D01*
X026535Y038996D02*
Y039114D01*
X03061Y036693D02*
X030728D01*
X030669Y036634D02*
Y036752D01*
X03061Y037205D02*
X030728D01*
X030669Y037146D02*
Y037264D01*
X028366Y035276D02*
X028484D01*
X028425Y035217D02*
Y035335D01*
X028012Y035866D02*
X02813D01*
X028071Y035807D02*
Y035925D01*
X028012Y036535D02*
X02813D01*
X028071Y036476D02*
Y036594D01*
X035059Y034567D02*
X035177D01*
X035118Y034508D02*
Y034626D01*
X033681Y034528D02*
X033799D01*
X03374Y034469D02*
Y034587D01*
X032657Y034449D02*
X032776D01*
X032717Y03439D02*
Y034508D01*
X03565Y033386D02*
X035768D01*
X035709Y033327D02*
Y033445D01*
X034902Y033425D02*
X03502D01*
X034961Y033366D02*
Y033484D01*
X034114Y033425D02*
X034232D01*
X034173Y033366D02*
Y033484D01*
X030728Y031654D02*
X030846D01*
X030787Y031594D02*
Y031713D01*
X030492Y029764D02*
X03061D01*
X030551Y029705D02*
Y029823D01*
X030098Y029921D02*
X030217D01*
X030157Y029862D02*
Y02998D01*
X035531Y030079D02*
X03565D01*
X035591Y03002D02*
Y030138D01*
X03565Y030591D02*
X035768D01*
X035709Y030531D02*
Y03065D01*
X035059Y030197D02*
X035177D01*
X035118Y030138D02*
Y030256D01*
X034587Y030197D02*
X034705D01*
X034646Y030138D02*
Y030256D01*
X033681Y030236D02*
X033799D01*
X03374Y030177D02*
Y030295D01*
X034075Y030236D02*
X034193D01*
X034134Y030177D02*
Y030295D01*
X035531Y028898D02*
X03565D01*
X035591Y028839D02*
Y028957D01*
X03498Y029055D02*
X035098D01*
X035039Y028996D02*
Y029114D01*
X03498Y029488D02*
X035098D01*
X035039Y029429D02*
Y029547D01*
X03561Y02815D02*
X035728D01*
X035669Y028091D02*
Y028209D01*
X034783Y02815D02*
X034902D01*
X034843Y028091D02*
Y028209D01*
X03439Y02815D02*
X034508D01*
X034449Y028091D02*
Y028209D01*
X033563Y02815D02*
X033681D01*
X033622Y028091D02*
Y028209D01*
X033563Y028543D02*
X033681D01*
X033622Y028484D02*
Y028602D01*
X034154Y029055D02*
X034272D01*
X034213Y028996D02*
Y029114D01*
X034154Y029409D02*
X034272D01*
X034213Y02935D02*
Y029469D01*
X03376Y029409D02*
X033878D01*
X033819Y02935D02*
Y029469D01*
X032894Y029173D02*
X033012D01*
X032953Y029114D02*
Y029232D01*
X032894Y029449D02*
X033012D01*
X032953Y02939D02*
Y029508D01*
X032146Y027638D02*
X032264D01*
X032205Y027579D02*
Y027697D01*
X031004Y027402D02*
X031122D01*
X031063Y027343D02*
Y027461D01*
X025571Y022087D02*
X025689D01*
X02563Y022028D02*
Y022146D01*
X02502Y022559D02*
X025138D01*
X025079Y0225D02*
Y022618D01*
X02502Y022992D02*
X025138D01*
X025079Y022933D02*
Y023051D01*
X02624Y02315D02*
X026358D01*
X026299Y023091D02*
Y023209D01*
X026398Y022677D02*
X026516D01*
X026457Y022618D02*
Y022736D01*
X029154Y02189D02*
X029272D01*
X029213Y021831D02*
Y021949D01*
X029154Y022205D02*
X029272D01*
X029213Y022146D02*
Y022264D01*
X026319Y024291D02*
X026437D01*
X026378Y024232D02*
Y02435D01*
X026319Y024685D02*
X026437D01*
X026378Y024626D02*
Y024744D01*
X026319Y025118D02*
X026437D01*
X026378Y025059D02*
Y025177D01*
X026594Y026181D02*
X026713D01*
X026654Y026122D02*
Y02624D01*
X02628Y026181D02*
X026398D01*
X026339Y026122D02*
Y02624D01*
X02823Y029084D02*
X028349D01*
X028289Y029024D02*
Y029143D01*
X025728Y027244D02*
X025846D01*
X025787Y027185D02*
Y027303D01*
X025453Y027362D02*
X025571D01*
X025512Y027303D02*
Y027421D01*
X026909Y030157D02*
X027028D01*
X026969Y030098D02*
Y030217D01*
X0275Y030748D02*
X027618D01*
X027559Y030689D02*
Y030807D01*
X028051Y032559D02*
X028169D01*
X02811Y0325D02*
Y032618D01*
X028248Y032874D02*
X028366D01*
X028307Y032815D02*
Y032933D01*
X027539Y032874D02*
X027657D01*
X027598Y032815D02*
Y032933D01*
X026831Y032244D02*
X026949D01*
X02689Y032185D02*
Y032303D01*
X026319Y032087D02*
X026437D01*
X026378Y032028D02*
Y032146D01*
X025768Y032087D02*
X025886D01*
X025827Y032028D02*
Y032146D01*
X026791Y031102D02*
X026909D01*
X02685Y031043D02*
Y031161D01*
X02628Y030945D02*
X026398D01*
X026339Y030886D02*
Y031004D01*
X025728Y030984D02*
X025846D01*
X025787Y030925D02*
Y031043D01*
X027382Y028307D02*
X0275D01*
X027441Y028248D02*
Y028366D01*
X027067Y028307D02*
X027185D01*
X027126Y028248D02*
Y028366D01*
X02872Y029803D02*
X028839D01*
X02878Y029744D02*
Y029862D01*
X03117Y034914D02*
X031288D01*
X031229Y034854D02*
Y034973D01*
X031173Y037273D02*
X031291D01*
X031232Y037214D02*
Y037332D01*
X0387Y035284D02*
X038819D01*
X038759Y035224D02*
Y035343D01*
X03871Y036694D02*
X038828D01*
X038769Y036634D02*
Y036753D01*
X03351Y033444D02*
X033628D01*
X033569Y033384D02*
Y033503D01*
X02755Y037674D02*
X027668D01*
X027609Y037614D02*
Y037733D01*
X02755Y037394D02*
X027668D01*
X027609Y037334D02*
Y037453D01*
X02684Y035864D02*
X026958D01*
X026899Y035804D02*
Y035923D01*
X03156Y038044D02*
X031679D01*
X031619Y037984D02*
Y038103D01*
X03062Y038034D02*
X030738D01*
X030679Y037974D02*
Y038093D01*
X03017Y038424D02*
X030289D01*
X030229Y038364D02*
Y038483D01*
X03967Y032744D02*
X039788D01*
X039729Y032684D02*
Y032803D01*
X0406Y032604D02*
X040718D01*
X040659Y032544D02*
Y032663D01*
X04061Y034464D02*
X040729D01*
X040669Y034404D02*
Y034523D01*
X030062Y033225D02*
X03018D01*
X030121Y033166D02*
Y033284D01*
X04097Y032824D02*
X041089D01*
X041029Y032764D02*
Y032883D01*
X04095Y034774D02*
X041069D01*
X041009Y034714D02*
Y034833D01*
X03252Y033864D02*
X032638D01*
X032579Y033804D02*
Y033923D01*
X03229Y034134D02*
X032408D01*
X032349Y034074D02*
Y034193D01*
X03203Y034344D02*
X032148D01*
X032089Y034284D02*
Y034403D01*
X03178Y034564D02*
X031899D01*
X031839Y034504D02*
Y034623D01*
X03154Y032984D02*
X031658D01*
X031599Y032924D02*
Y033043D01*
X03078Y027728D02*
X030898D01*
X030839Y027669D02*
Y027787D01*
X030752Y028074D02*
X03087D01*
X030811Y028015D02*
Y028133D01*
X027627Y02854D02*
X027745D01*
X027686Y028481D02*
Y028599D01*
X02905Y025624D02*
X029169D01*
X029109Y025564D02*
Y025683D01*
X02616Y025594D02*
X026279D01*
X026219Y025534D02*
Y025653D01*
X02616Y023654D02*
X026279D01*
X026219Y023594D02*
Y023713D01*
X02585Y022614D02*
X025968D01*
X025909Y022554D02*
Y022673D01*
X02641Y026785D02*
X026528D01*
X026469Y026726D02*
Y026844D01*
X03041Y032444D02*
X030529D01*
X030469Y032384D02*
Y032503D01*
X03025Y031704D02*
X030368D01*
X030309Y031644D02*
Y031763D01*
X03433Y031614D02*
X034448D01*
X034389Y031554D02*
Y031673D01*
X026843Y036745D02*
X026961D01*
X026902Y036686D02*
Y036804D01*
X02897Y032724D02*
X029088D01*
X029029Y032664D02*
Y032783D01*
X02981Y032614D02*
X029929D01*
X029869Y032554D02*
Y032673D01*
X03152Y032604D02*
X031639D01*
X031579Y032544D02*
Y032663D01*
X03539Y031364D02*
X035508D01*
X035449Y031304D02*
Y031423D01*
X03523Y031674D02*
X035348D01*
X035289Y031614D02*
Y031733D01*
X03495Y031904D02*
X035069D01*
X035009Y031844D02*
Y031963D01*
X04063Y031764D02*
X040749D01*
X040689Y031705D02*
Y031823D01*
X041143Y029654D02*
X041262D01*
X041203Y029595D02*
Y029713D01*
X04057Y030049D02*
X040688D01*
X040629Y02999D02*
Y030108D01*
X041134Y030278D02*
X041252D01*
X041193Y030219D02*
Y030337D01*
X041154Y029973D02*
X041272D01*
X041213Y029914D02*
Y030032D01*
X03475Y030924D02*
X034869D01*
X034809Y030864D02*
Y030983D01*
X03203Y031104D02*
X032148D01*
X032089Y031044D02*
Y031163D01*
X03205Y030314D02*
X032169D01*
X032109Y030254D02*
Y030373D01*
X02874Y022254D02*
X028858D01*
X028799Y022194D02*
Y022313D01*
X02665Y023084D02*
X026769D01*
X026709Y023024D02*
Y023143D01*
X02845Y025724D02*
X028568D01*
X028509Y025664D02*
Y025783D01*
X02795Y025634D02*
X028068D01*
X028009Y025574D02*
Y025693D01*
X02776Y026684D02*
X027878D01*
X027819Y026624D02*
Y026743D01*
X02937Y030354D02*
X029488D01*
X029429Y030294D02*
Y030413D01*
X03004Y030484D02*
X030159D01*
X030099Y030424D02*
Y030543D01*
X02789Y029974D02*
X028008D01*
X027949Y029914D02*
Y030033D01*
X02814Y029724D02*
X028259D01*
X028199Y029664D02*
Y029783D01*
X02813Y031194D02*
X028249D01*
X028189Y031134D02*
Y031253D01*
X02788Y031414D02*
X027998D01*
X027939Y031354D02*
Y031473D01*
X03222Y029084D02*
X032339D01*
X032279Y029024D02*
Y029143D01*
X03253Y027934D02*
X032648D01*
X032589Y027874D02*
Y027993D01*
X039272Y02689D02*
X03939D01*
X039331Y026831D02*
Y026949D01*
X04134Y031074D02*
X041459D01*
X041399Y031014D02*
Y031133D01*
X042881Y032163D02*
X042999D01*
X04294Y032104D02*
Y032222D01*
X04207Y030274D02*
X042189D01*
X042129Y030214D02*
Y030333D01*
X041087Y026154D02*
X041205D01*
X041146Y026094D02*
Y026213D01*
X0403Y026154D02*
X040418D01*
X040359Y026094D02*
Y026213D01*
X039512Y026154D02*
X03963D01*
X039571Y026094D02*
Y026213D01*
X038725Y026154D02*
X038843D01*
X038784Y026094D02*
Y026213D01*
X037937Y026154D02*
X038056D01*
X037996Y026094D02*
Y026213D01*
X03715Y026154D02*
X037268D01*
X037209Y026094D02*
Y026213D01*
X036363Y026154D02*
X036481D01*
X036422Y026094D02*
Y026213D01*
X035575Y026154D02*
X035693D01*
X035634Y026094D02*
Y026213D01*
X034788Y026154D02*
X034906D01*
X034847Y026094D02*
Y026213D01*
X034Y026154D02*
X034118D01*
X034059Y026094D02*
Y026213D01*
X039478Y030619D02*
X039596D01*
X039537Y03056D02*
Y030678D01*
X037514Y028103D02*
X037632D01*
X037573Y028044D02*
Y028162D01*
X029884Y035948D02*
X030002D01*
X029943Y035889D02*
Y036007D01*
X042618Y037795D02*
X042736D01*
X042677Y037736D02*
Y037854D01*
X042618Y036772D02*
X042736D01*
X042677Y036713D02*
Y036831D01*
X042618Y035787D02*
X042736D01*
X042677Y035728D02*
Y035846D01*
X042618Y034803D02*
X042736D01*
X042677Y034744D02*
Y034862D01*
X042618Y03378D02*
X042736D01*
X042677Y03372D02*
Y033839D01*
X042618Y032756D02*
X042736D01*
X042677Y032697D02*
Y032815D01*
X028644Y037828D02*
X028762D01*
X028703Y037769D02*
Y037887D01*
X029678Y038124D02*
X029796D01*
X029737Y038065D02*
Y038183D01*
X031673Y039071D02*
X031791D01*
X031732Y039012D02*
Y03913D01*
X03128Y039053D02*
X031398D01*
X031339Y038994D02*
Y039112D01*
X03089Y039054D02*
X031009D01*
X030949Y038994D02*
Y039113D01*
M02*
