G04*
G04 #@! TF.GenerationSoftware,Altium Limited,Altium Designer,21.0.9 (235)*
G04*
G04 Layer_Physical_Order=1*
G04 Layer_Color=255*
%FSTAX24Y24*%
%MOIN*%
G70*
G04*
G04 #@! TF.SameCoordinates,C81BF7DB-63EA-445F-9019-DF517AEC57AA*
G04*
G04*
G04 #@! TF.FilePolarity,Positive*
G04*
G01*
G75*
%ADD13C,0.0100*%
%ADD17C,0.0060*%
%ADD19O,0.0669X0.0236*%
%ADD20R,0.0201X0.0201*%
%ADD21R,0.0201X0.0201*%
%ADD22R,0.0236X0.0252*%
%ADD23R,0.0315X0.0787*%
%ADD24R,0.0433X0.0866*%
%ADD25R,0.0217X0.0177*%
%ADD26R,0.0335X0.0374*%
%ADD27R,0.0177X0.0217*%
%ADD28R,0.0335X0.0079*%
%ADD29R,0.1575X0.1575*%
%ADD30R,0.0079X0.0335*%
%ADD31R,0.0295X0.0374*%
%ADD32R,0.0374X0.0295*%
%ADD33R,0.0394X0.0547*%
%ADD34R,0.0472X0.0236*%
%ADD35R,0.0098X0.0295*%
%ADD36R,0.0177X0.0492*%
%ADD37O,0.0098X0.0354*%
%ADD38O,0.0354X0.0098*%
%ADD39R,0.1378X0.1378*%
%ADD40R,0.0256X0.0335*%
%ADD41R,0.0335X0.0256*%
%ADD72R,0.1693X0.1339*%
%ADD73C,0.0080*%
%ADD74C,0.0120*%
%ADD75C,0.0150*%
%ADD76C,0.0200*%
%ADD77C,0.0300*%
%ADD78C,0.0250*%
%ADD79R,0.0787X0.0630*%
%ADD80O,0.0787X0.0630*%
%ADD81R,0.0630X0.0787*%
%ADD82O,0.0630X0.0787*%
%ADD83C,0.1181*%
%ADD84C,0.0787*%
%ADD85C,0.0236*%
G36*
X040148Y041182D02*
X040168Y041102D01*
X040118Y041036D01*
X040076Y040935D01*
X040062Y040827D01*
Y040669D01*
X040076Y040561D01*
X040118Y04046D01*
X040184Y040373D01*
X040271Y040307D01*
X040372Y040265D01*
X04048Y040251D01*
X040589Y040265D01*
X040686Y040305D01*
X041447Y039544D01*
Y038822D01*
X041309Y038765D01*
X041238Y038836D01*
X041185Y038871D01*
X041123Y038884D01*
X040927D01*
Y039135D01*
X039939D01*
Y038306D01*
X040927D01*
Y038505D01*
X041077Y038536D01*
X041186Y038426D01*
Y037201D01*
X040832Y036847D01*
X038865D01*
X038805Y036872D01*
X038734D01*
X038674Y036847D01*
X03825D01*
X038187Y036834D01*
X038134Y036799D01*
X036412Y035077D01*
X031301D01*
X031265Y035092D01*
X031194D01*
X031158Y035077D01*
X028017D01*
X027773Y035321D01*
Y037025D01*
X027923Y037167D01*
X029235Y037167D01*
X029257Y037176D01*
X029269Y03718D01*
X029932D01*
Y037271D01*
X030068Y037305D01*
Y037305D01*
X030404D01*
Y037602D01*
X030404D01*
Y037674D01*
X030404D01*
Y037861D01*
X030432Y037877D01*
X030554Y037907D01*
X030579Y037883D01*
X03063Y037861D01*
X030644Y037855D01*
X030734Y037812D01*
X030777Y037719D01*
Y037555D01*
X031067D01*
X031098Y037493D01*
X031113Y037405D01*
X031081Y037374D01*
X031054Y037308D01*
Y037238D01*
X031081Y037172D01*
X031132Y037122D01*
X031197Y037095D01*
X031268D01*
X031333Y037122D01*
X031383Y037172D01*
X031411Y037238D01*
Y037256D01*
X031436Y037282D01*
X031436Y037282D01*
X031466Y037326D01*
X031476Y037379D01*
Y037406D01*
X031507Y037555D01*
X031509Y03767D01*
X031509Y03769D01*
X031509Y03769D01*
X031507Y037704D01*
X031507Y037705D01*
Y037735D01*
X03158Y037859D01*
X031652Y037865D01*
X031655D01*
X03172Y037893D01*
X03177Y037943D01*
X031798Y038008D01*
Y038079D01*
X03177Y038144D01*
X03172Y038195D01*
X031655Y038222D01*
X031623D01*
X031556Y038269D01*
X031507Y038352D01*
Y038517D01*
X031551Y038615D01*
X031639Y038643D01*
X031901D01*
Y038941D01*
X031901Y038941D01*
X03191Y039035D01*
X03191Y039106D01*
X031883Y039172D01*
X031833Y039222D01*
X031768Y039249D01*
X031697D01*
X031631Y039222D01*
X031624Y039215D01*
X031547Y039179D01*
X031439Y039204D01*
X031439Y039204D01*
X031433Y039206D01*
X031374Y039231D01*
X031303D01*
X031242Y039205D01*
X031238Y039204D01*
X031144Y03917D01*
X03105Y039205D01*
X031047Y039206D01*
X030985Y039232D01*
X030914D01*
X030849Y039205D01*
X030798Y039154D01*
X030771Y039089D01*
X030771Y039018D01*
X030777Y038941D01*
X030777Y038941D01*
X030777Y038643D01*
X030777Y038493D01*
Y038348D01*
X030744Y038277D01*
X030665Y038212D01*
X030644D01*
X030579Y038185D01*
X030436Y038238D01*
X030404Y038311D01*
X030408Y038388D01*
X030408Y038459D01*
X03038Y038524D01*
X03033Y038575D01*
X030265Y038602D01*
X030194D01*
X030129Y038575D01*
X030078Y038524D01*
X030051Y038459D01*
X030051Y038388D01*
X030068Y038311D01*
X030068Y038311D01*
X030068Y038014D01*
X030068Y037821D01*
X029918Y037695D01*
X02991Y037696D01*
X029886Y037727D01*
Y03802D01*
X029888Y038023D01*
X029915Y038088D01*
Y038159D01*
X029888Y038225D01*
X029838Y038275D01*
X029772Y038302D01*
X029701D01*
X029636Y038275D01*
X029586Y038225D01*
X029569Y038183D01*
X029559Y038159D01*
X029559Y038159D01*
X02955Y038085D01*
X02942Y038042D01*
X029248D01*
Y037896D01*
X029098Y037834D01*
X028939Y037994D01*
X028893Y038013D01*
X027424D01*
X027378Y037994D01*
X027361Y037987D01*
X02718Y037997D01*
X027051Y038126D01*
Y038318D01*
X026754Y038318D01*
X026604Y038318D01*
X026414D01*
Y038313D01*
X025533D01*
Y038565D01*
X024646D01*
X024546Y038565D01*
X024496Y038694D01*
Y039771D01*
X024646Y0399D01*
X024649Y039899D01*
X027849D01*
X027895Y039918D01*
X027976Y039998D01*
X02809Y039998D01*
X028107Y039995D01*
X028149Y039982D01*
X028644Y039488D01*
X028689Y039469D01*
X034989D01*
X035035Y039488D01*
X035885Y040338D01*
X035904Y040384D01*
Y041024D01*
X035885Y041069D01*
X035853Y041102D01*
X035915Y041252D01*
X036106D01*
X036148Y041182D01*
X036168Y041102D01*
X036118Y041036D01*
X036076Y040935D01*
X036062Y040827D01*
Y040669D01*
X036076Y040561D01*
X036118Y04046D01*
X036184Y040373D01*
X036271Y040307D01*
X036372Y040265D01*
X03648Y040251D01*
X036589Y040265D01*
X03669Y040307D01*
X036776Y040373D01*
X036843Y04046D01*
X036885Y040561D01*
X036899Y040669D01*
Y040827D01*
X036885Y040935D01*
X036843Y041036D01*
X036792Y041102D01*
X036812Y041182D01*
X036854Y041252D01*
X037024D01*
X037086Y041102D01*
X037084Y041099D01*
X037064Y041054D01*
Y040848D01*
X037062Y040827D01*
Y040669D01*
X037064Y040649D01*
Y04023D01*
X036244Y039409D01*
X036225Y039364D01*
Y0369D01*
X035653Y036328D01*
X029881Y036328D01*
X029744Y036465D01*
X029744Y036689D01*
X029744Y036774D01*
X029735Y036836D01*
X029686Y036836D01*
X029679Y036838D01*
X029679Y036838D01*
X029579Y036838D01*
X029572Y036836D01*
X029517D01*
Y036779D01*
X029515Y036774D01*
Y036631D01*
X029514Y036628D01*
Y036499D01*
X029498Y036489D01*
X029348Y036569D01*
Y036778D01*
X029341Y036793D01*
Y036836D01*
X0293D01*
X029283Y036843D01*
X029133D01*
X029087Y036824D01*
X028537Y036274D01*
X028518Y036228D01*
Y035638D01*
X028537Y035592D01*
X028607Y035522D01*
X028653Y035503D01*
X029083D01*
X029129Y035522D01*
X029179Y035572D01*
X029198Y035618D01*
X029344Y035614D01*
X029361Y035573D01*
Y035572D01*
X029362D01*
X029364Y035568D01*
X029464Y035468D01*
X029509Y035449D01*
X036089D01*
X036135Y035468D01*
X037025Y036358D01*
X037044Y036404D01*
Y038134D01*
X03707Y038155D01*
X037259Y038142D01*
X037355Y038046D01*
X037468Y037971D01*
X037594Y037919D01*
X037727Y037892D01*
X037863D01*
X037997Y037919D01*
X038122Y037971D01*
X038235Y038046D01*
X038332Y038142D01*
X038407Y038256D01*
X038459Y038381D01*
X038486Y038515D01*
Y038651D01*
X038459Y038784D01*
X038407Y03891D01*
X038332Y039023D01*
X038235Y039119D01*
X038122Y039195D01*
X037997Y039247D01*
X037863Y039273D01*
X037727D01*
X037594Y039247D01*
X037468Y039195D01*
X037355Y039119D01*
X037256Y039228D01*
X037875Y039848D01*
X037894Y039894D01*
Y040635D01*
X037899Y040669D01*
Y040827D01*
X037894Y040861D01*
Y041084D01*
X037887Y041102D01*
X037918Y041187D01*
X037965Y041252D01*
X038106D01*
X038148Y041182D01*
X038168Y041102D01*
X038118Y041036D01*
X038076Y040935D01*
X038062Y040827D01*
Y040669D01*
X038076Y040561D01*
X038118Y04046D01*
X038184Y040373D01*
X038271Y040307D01*
X038372Y040265D01*
X03848Y040251D01*
X038589Y040265D01*
X03869Y040307D01*
X038776Y040373D01*
X038843Y04046D01*
X038885Y040561D01*
X038899Y040669D01*
Y040827D01*
X038885Y040935D01*
X038843Y041036D01*
X038792Y041102D01*
X038812Y041182D01*
X038854Y041252D01*
X039106D01*
X039148Y041182D01*
X039168Y041102D01*
X039118Y041036D01*
X039076Y040935D01*
X039062Y040827D01*
Y040669D01*
X039076Y040561D01*
X039118Y04046D01*
X039184Y040373D01*
X039271Y040307D01*
X039372Y040265D01*
X03948Y040251D01*
X039589Y040265D01*
X03969Y040307D01*
X039776Y040373D01*
X039843Y04046D01*
X039885Y040561D01*
X039899Y040669D01*
Y040827D01*
X039885Y040935D01*
X039843Y041036D01*
X039792Y041102D01*
X039812Y041182D01*
X039854Y041252D01*
X040106D01*
X040148Y041182D01*
D02*
G37*
G36*
X033148D02*
X033168Y041102D01*
X033118Y041036D01*
X033076Y040935D01*
X033062Y040827D01*
Y040669D01*
X033076Y040561D01*
X033118Y04046D01*
X033184Y040373D01*
X033269Y040308D01*
X03327Y040301D01*
X033237Y040158D01*
X029206D01*
X028784Y040581D01*
X028741Y040624D01*
Y041252D01*
X033106D01*
X033148Y041182D01*
D02*
G37*
G36*
X035839Y041024D02*
Y040384D01*
X034989Y039534D01*
X028689D01*
X028179Y040044D01*
Y040504D01*
X028254Y040578D01*
X028695D01*
X029179Y040094D01*
X034629D01*
X035139Y040604D01*
Y041054D01*
X035269Y041184D01*
X035679D01*
X035839Y041024D01*
D02*
G37*
G36*
X027959Y040614D02*
Y040074D01*
X027849Y039964D01*
X024649D01*
X024569Y040044D01*
Y040714D01*
X024649Y040794D01*
X027779D01*
X027959Y040614D01*
D02*
G37*
G36*
X029283Y037558D02*
Y037275D01*
X029235Y037232D01*
X027793Y037232D01*
X027401D01*
X027339Y037294D01*
Y037864D01*
X027424Y037948D01*
X028893D01*
X029283Y037558D01*
D02*
G37*
G36*
X027067Y037821D02*
Y03631D01*
X026754Y03631D01*
X026711Y036442D01*
Y036958D01*
X026711Y03704D01*
X026711Y037061D01*
X026713Y037064D01*
Y037064D01*
X026725Y037126D01*
X026713Y037249D01*
X026713Y037848D01*
X026754Y037981D01*
X026907Y037981D01*
X027067Y037821D01*
D02*
G37*
G36*
X037829Y041084D02*
Y039894D01*
X036979Y039044D01*
Y036404D01*
X036089Y035514D01*
X029509D01*
X029409Y035614D01*
Y036164D01*
X029579Y036334D01*
Y036774D01*
X029679D01*
X029679Y036334D01*
X029749Y036264D01*
X035679Y036264D01*
X036289Y036874D01*
Y039364D01*
X037129Y040204D01*
Y041054D01*
X037259Y041184D01*
X037729D01*
X037829Y041084D01*
D02*
G37*
G36*
X029283Y036258D02*
X029133Y036108D01*
Y035618D01*
X029083Y035568D01*
X028653D01*
X028583Y035638D01*
Y036228D01*
X029133Y036778D01*
X029283D01*
Y036258D01*
D02*
G37*
G36*
X041961Y036487D02*
X041987Y036467D01*
Y035419D01*
X041338Y034769D01*
X041253Y034792D01*
X041181Y034825D01*
X04116Y034874D01*
X04111Y034925D01*
X041045Y034952D01*
X040974D01*
X040909Y034925D01*
X040858Y034874D01*
X040831Y034809D01*
Y03475D01*
X04079Y034705D01*
X04071Y03464D01*
X040705Y034642D01*
X040634D01*
X040569Y034615D01*
X040518Y034564D01*
X040491Y034499D01*
Y034436D01*
X037018D01*
X036956Y034585D01*
X038112Y035742D01*
X038478D01*
X038559Y035729D01*
X038583Y03568D01*
X038609Y035592D01*
X0386Y035547D01*
Y035364D01*
X038581Y035319D01*
Y035248D01*
X038608Y035183D01*
X038659Y035133D01*
X038724Y035105D01*
X038795D01*
X03886Y035133D01*
X03891Y035183D01*
X038935Y035243D01*
X038938Y035248D01*
X038938Y035248D01*
X038949Y035325D01*
X039073Y035383D01*
X039256D01*
Y035439D01*
X039485D01*
Y035383D01*
X039782Y035383D01*
X039932Y035383D01*
X040122D01*
Y035497D01*
X040765D01*
X040765Y035497D01*
X040808Y035506D01*
X040845Y03553D01*
X041837Y036523D01*
X041961Y036487D01*
D02*
G37*
G36*
X029579Y034031D02*
X029618Y034023D01*
X029623D01*
X029685Y033873D01*
X029063Y033252D01*
X027051D01*
Y033318D01*
X026754Y033318D01*
X026604Y033318D01*
X026414D01*
Y033313D01*
X0255D01*
X025481Y033359D01*
X025414Y033446D01*
X025327Y033512D01*
X025226Y033554D01*
X025118Y033568D01*
X024961D01*
X024852Y033554D01*
X024751Y033512D01*
X024665Y033446D01*
X024646Y033421D01*
X024496Y033472D01*
Y033827D01*
X024646Y033878D01*
X024665Y033854D01*
X024751Y033787D01*
X024852Y033745D01*
X024961Y033731D01*
X025118D01*
X025226Y033745D01*
X025327Y033787D01*
X025414Y033854D01*
X025481Y03394D01*
X025493Y033971D01*
X026414D01*
Y033966D01*
X026711Y033966D01*
X026861Y033966D01*
X027051D01*
Y034032D01*
X029579D01*
X029579Y034031D01*
D02*
G37*
G36*
X036442Y0346D02*
X036137Y034295D01*
X033223D01*
X033184Y034288D01*
X033151Y034266D01*
X03288Y033995D01*
X03273Y033964D01*
X03268Y034015D01*
X032615Y034042D01*
X032538Y034092D01*
X032528Y034169D01*
X0325Y034234D01*
X03245Y034285D01*
X032385Y034312D01*
X032314D01*
X032268Y034379D01*
X03224Y034444D01*
X03219Y034495D01*
X032135Y034517D01*
X03212Y034532D01*
X032088Y034608D01*
X03218Y03475D01*
X03638D01*
X036442Y0346D01*
D02*
G37*
G36*
X036201Y033463D02*
X035997Y033259D01*
X033239D01*
X033187Y03334D01*
X033173Y033405D01*
X03337Y033602D01*
X036144D01*
X036201Y033463D01*
D02*
G37*
G36*
X028994Y032902D02*
X028929Y032875D01*
X028878Y032824D01*
X028851Y032759D01*
Y032688D01*
X028872Y032638D01*
Y032481D01*
X028872Y032479D01*
Y032126D01*
X028875Y032112D01*
Y032074D01*
X028842Y03196D01*
X028736Y03194D01*
X02854D01*
Y031767D01*
X028508Y031735D01*
X027819D01*
X02778Y031728D01*
X027747Y031706D01*
X025597Y029556D01*
X025575Y029523D01*
X025567Y029484D01*
Y029409D01*
X025533Y029273D01*
X025417Y029273D01*
X024646D01*
X024546Y029273D01*
X024496Y029403D01*
Y030685D01*
X024646Y030736D01*
X024665Y030712D01*
X024751Y030645D01*
X024852Y030604D01*
X024961Y030589D01*
X025118D01*
X025226Y030604D01*
X025327Y030645D01*
X025414Y030712D01*
X025481Y030799D01*
X025522Y0309D01*
X025537Y031008D01*
X025527Y031081D01*
X025585Y031179D01*
X025637Y031231D01*
X02602D01*
Y031131D01*
X026317Y031131D01*
X026467Y031131D01*
X026657D01*
Y031284D01*
X026834D01*
X026873Y031292D01*
X026906Y031314D01*
X027209Y031616D01*
X027231Y03165D01*
X027238Y031689D01*
Y031818D01*
X02724Y03182D01*
X027378Y031876D01*
X027429Y031826D01*
X027494Y031799D01*
X027565D01*
X02763Y031826D01*
X02768Y031876D01*
X027708Y031942D01*
Y032013D01*
X02768Y032078D01*
X027633Y032125D01*
X02768Y032173D01*
X027708Y032238D01*
Y032309D01*
X02768Y032374D01*
X02763Y032425D01*
X027565Y032452D01*
X027494D01*
X027429Y032425D01*
X027378Y032374D01*
X027355Y032317D01*
X027237D01*
X027198Y03231D01*
X027165Y032288D01*
X026884Y032007D01*
X026862Y031974D01*
X026854Y031935D01*
Y031901D01*
X026792Y031858D01*
X026657Y031822D01*
Y031822D01*
X02636Y031822D01*
X02621Y031822D01*
X02602D01*
Y031714D01*
X025571D01*
X025533Y031752D01*
Y032423D01*
X024646D01*
X024546Y032423D01*
X024496Y032552D01*
X024496Y032827D01*
X024646Y032878D01*
X024665Y032854D01*
X024751Y032787D01*
X024852Y032745D01*
X024961Y032731D01*
X025118D01*
X025226Y032745D01*
X025327Y032787D01*
X025414Y032854D01*
X025481Y03294D01*
X0255Y032986D01*
X026414D01*
Y032981D01*
X026711Y032981D01*
X026861Y032981D01*
X027051D01*
Y033048D01*
X028984D01*
X028994Y032902D01*
D02*
G37*
G36*
X030888Y033239D02*
X030853Y033177D01*
X030727Y033121D01*
X030727Y033121D01*
X030727Y033121D01*
X030429D01*
Y032943D01*
X030267Y032781D01*
X030169D01*
X030168Y032781D01*
X030158Y032778D01*
X029958D01*
Y032779D01*
X029958Y032778D01*
X029815Y032821D01*
X029751Y03292D01*
Y033091D01*
X03004Y03338D01*
X030817D01*
X030888Y033239D01*
D02*
G37*
G36*
X032843Y033018D02*
X032857Y032953D01*
X032649Y032745D01*
X031961D01*
X031922Y032738D01*
X031889Y032716D01*
X031889Y032715D01*
X03173Y032704D01*
X03168Y032755D01*
X031645Y032769D01*
X031615Y032782D01*
X031615Y032782D01*
X031544D01*
X031539Y03278D01*
X031499Y032779D01*
Y032778D01*
X031211D01*
Y033043D01*
X031268Y0331D01*
X032791D01*
X032843Y033018D01*
D02*
G37*
G36*
X043855Y031564D02*
X044152Y031564D01*
X044302Y031564D01*
X044492D01*
Y031569D01*
X045044D01*
X045098Y031499D01*
X045184Y031433D01*
X045285Y031391D01*
X045394Y031377D01*
X045551D01*
X04566Y031391D01*
X04576Y031433D01*
X045826Y031483D01*
X045907Y031463D01*
X045976Y031421D01*
Y030088D01*
X045966Y029943D01*
X045826Y029943D01*
X044979D01*
Y029665D01*
X044492D01*
Y029696D01*
X044195Y029696D01*
X043994Y029696D01*
X043672Y030018D01*
Y030634D01*
X043672Y030634D01*
X043663Y030676D01*
X043639Y030713D01*
X043639Y030713D01*
X042938Y031414D01*
X043Y031564D01*
X043089Y031564D01*
X043239Y031564D01*
X043429D01*
Y03162D01*
X043855D01*
Y031564D01*
D02*
G37*
G36*
X032214Y031407D02*
X032125Y031282D01*
X032054D01*
X031989Y031255D01*
X031938Y031204D01*
X031911Y031139D01*
Y031068D01*
X031938Y031003D01*
X031989Y030953D01*
X032054Y030925D01*
X032125D01*
X032214Y0308D01*
Y030626D01*
X032145Y030492D01*
X032074D01*
X032009Y030465D01*
X031958Y030414D01*
X031931Y030349D01*
Y030278D01*
X031958Y030213D01*
X032009Y030163D01*
X032074Y030135D01*
X032145D01*
X032214Y030002D01*
Y029597D01*
X029991D01*
Y029743D01*
Y030173D01*
X030064Y030305D01*
X030135D01*
X0302Y030333D01*
X03025Y030383D01*
X030278Y030448D01*
Y030519D01*
X03025Y030584D01*
X0302Y030635D01*
X030135Y030662D01*
X030064D01*
X029991Y030794D01*
Y03116D01*
Y031645D01*
X030131Y031668D01*
X030158Y031603D01*
X030209Y031553D01*
X030274Y031525D01*
X030345D01*
X03041Y031553D01*
X03046Y031603D01*
X030488Y031668D01*
Y031739D01*
X030616Y03182D01*
X032214D01*
Y031407D01*
D02*
G37*
G36*
X040662Y032866D02*
X040624Y032782D01*
X040559Y032755D01*
X040508Y032704D01*
X040481Y032639D01*
Y032568D01*
X040355Y03248D01*
X037402D01*
X036024Y031102D01*
Y027953D01*
X035039Y026969D01*
X034646D01*
X034252Y026575D01*
X029641D01*
X029579Y026725D01*
X029848Y026994D01*
X029998Y027023D01*
X030049Y026973D01*
X030114Y026945D01*
X030185D01*
X03025Y026973D01*
X0303Y027023D01*
X030328Y027088D01*
Y027159D01*
X0303Y027224D01*
X030251Y027273D01*
Y028422D01*
X03027Y028513D01*
X030398Y028557D01*
X030414Y02856D01*
X030497D01*
X030607Y028529D01*
X030631Y028423D01*
Y028225D01*
X030631Y028225D01*
X030633Y028109D01*
Y028038D01*
X03066Y027973D01*
X030708Y027915D01*
X030688Y027829D01*
X030661Y027764D01*
Y027693D01*
X030688Y027628D01*
X030739Y027577D01*
X030804Y02755D01*
X030875D01*
X03094Y027577D01*
X03099Y027628D01*
X031018Y027693D01*
Y027762D01*
X031112Y027856D01*
X031134Y027889D01*
X031141Y027928D01*
Y028031D01*
X031416D01*
X031534Y027954D01*
X031534Y027881D01*
Y02746D01*
X031534D01*
X031552Y027444D01*
Y027123D01*
X031873D01*
Y027444D01*
X031989Y02746D01*
Y02781D01*
X032152Y027972D01*
X032174Y028005D01*
X032181Y028044D01*
Y028612D01*
X032331Y028693D01*
X032416Y028648D01*
Y028189D01*
X032416Y028187D01*
Y02798D01*
X032411Y027969D01*
Y027898D01*
X032438Y027833D01*
X032489Y027783D01*
X032554Y027755D01*
X032625D01*
X03269Y027783D01*
X03274Y027833D01*
X032768Y027898D01*
Y027969D01*
X032742Y02803D01*
Y028189D01*
X032742Y028191D01*
Y028543D01*
Y028898D01*
X032739Y028911D01*
Y029058D01*
X032661D01*
Y029536D01*
X032693Y029574D01*
X032742Y029613D01*
X032818Y029641D01*
X032819Y02964D01*
X033386D01*
X033425Y029648D01*
X033465Y02964D01*
X033688D01*
Y029617D01*
X034044Y029617D01*
X034194Y029617D01*
X034365D01*
X034466Y029485D01*
X034443Y029386D01*
X034443D01*
Y028479D01*
X034877D01*
Y029386D01*
X034828D01*
Y029803D01*
X034826Y029817D01*
Y029964D01*
X034679D01*
X034665Y029966D01*
X034422D01*
Y029989D01*
X034066Y029989D01*
X033916Y029989D01*
X033773D01*
X033688Y029989D01*
Y029989D01*
X033625Y029983D01*
Y029983D01*
X033476D01*
X033465Y029986D01*
X033459D01*
X033388Y030014D01*
X03333Y030108D01*
Y030266D01*
X033349Y030364D01*
X03346Y030405D01*
X033629D01*
X033714Y030405D01*
Y030405D01*
X033777Y03041D01*
Y03041D01*
X034097D01*
Y03041D01*
X03417D01*
Y03041D01*
X034491D01*
X034605Y030344D01*
Y030344D01*
X035021D01*
Y030838D01*
X035021Y030838D01*
X034988Y030959D01*
X034982Y030972D01*
X034982Y030972D01*
X034981Y030976D01*
X03496Y031024D01*
X03491Y031075D01*
X034944Y031223D01*
X034993Y031272D01*
X035295D01*
X035298Y031263D01*
X035349Y031213D01*
X035414Y031185D01*
X035485D01*
X03555Y031213D01*
X0356Y031263D01*
X035628Y031328D01*
Y031399D01*
X0356Y031464D01*
X03555Y031515D01*
X035483Y03155D01*
X035468Y031638D01*
Y031709D01*
X03544Y031774D01*
X03539Y031825D01*
X035325Y031852D01*
X035322Y031852D01*
X035314Y031882D01*
X035429Y032032D01*
X036449D01*
X036488Y032039D01*
X036522Y032061D01*
X0374Y03294D01*
X040594D01*
X040662Y032866D01*
D02*
G37*
G36*
X029097Y030026D02*
X029115Y029957D01*
X029105Y029943D01*
X029097Y029904D01*
Y029497D01*
X029105Y029458D01*
X029127Y029425D01*
X029289Y029263D01*
Y029045D01*
X029272Y02902D01*
X029139Y028934D01*
X029134Y028936D01*
X028701D01*
X028631Y028922D01*
X028592Y028895D01*
X028269D01*
X028051Y029113D01*
Y02943D01*
X028164Y029545D01*
X028235D01*
X0283Y029573D01*
X02835Y029623D01*
X028378Y029688D01*
Y029757D01*
X028699Y030079D01*
X028837Y030107D01*
X02888D01*
Y030107D01*
X029047D01*
X029097Y030026D01*
D02*
G37*
G36*
X027839Y031263D02*
X027904Y031235D01*
X027977Y031231D01*
X028011Y031158D01*
X028038Y031093D01*
X028089Y031043D01*
X028091Y030879D01*
X027437Y030226D01*
X027415Y030193D01*
X027407Y030154D01*
Y028916D01*
X027348Y028856D01*
X026485D01*
X026467Y028882D01*
X026421Y028913D01*
X02641Y028996D01*
X026411Y029074D01*
X0265Y029152D01*
X026639D01*
X026689Y029103D01*
X026754Y029075D01*
X026825D01*
X02689Y029103D01*
X02694Y029153D01*
X026968Y029218D01*
Y029289D01*
X02694Y029354D01*
X02689Y029405D01*
X026825Y029432D01*
X026754D01*
X026689Y029405D01*
X02664Y029356D01*
X026485D01*
X026467Y029382D01*
X026408Y029422D01*
X026339Y029436D01*
X025978D01*
X025916Y029586D01*
X027631Y031301D01*
X027788Y031313D01*
X027839Y031263D01*
D02*
G37*
G36*
X031977Y028651D02*
Y028086D01*
X031845Y027954D01*
X031655D01*
X031536Y028031D01*
X031536Y028103D01*
Y028525D01*
X031536D01*
X031519Y02854D01*
Y028717D01*
X031568Y028766D01*
X03159Y0288D01*
X031595Y028822D01*
X031674Y02887D01*
X031734Y028895D01*
X031977Y028651D01*
D02*
G37*
G36*
X025423Y028443D02*
X025461Y028443D01*
X025568Y028418D01*
X025649Y02836D01*
X025729Y02828D01*
X025724Y028254D01*
X025738Y028184D01*
X025777Y028126D01*
X025836Y028086D01*
X025865Y02808D01*
Y027927D01*
X025836Y027922D01*
X025777Y027882D01*
X025738Y027823D01*
X025724Y027754D01*
X025738Y027684D01*
X025777Y027626D01*
X025836Y027586D01*
X025906Y027572D01*
X026302D01*
X026339Y027536D01*
Y027326D01*
X026316D01*
Y027005D01*
X02617Y026996D01*
X02551D01*
X025481Y027068D01*
X025414Y027154D01*
X025327Y027221D01*
X025226Y027263D01*
X025118Y027277D01*
X024961D01*
X024852Y027263D01*
X024751Y027221D01*
X024665Y027154D01*
X024646Y02713D01*
X024496Y027181D01*
Y027536D01*
X024646Y027587D01*
X024665Y027562D01*
X024751Y027496D01*
X024852Y027454D01*
X024961Y02744D01*
X025118D01*
X025226Y027454D01*
X025327Y027496D01*
X025414Y027562D01*
X025481Y027649D01*
X025522Y02775D01*
X025537Y027858D01*
X025522Y027967D01*
X025481Y028068D01*
X025414Y028154D01*
X025327Y028221D01*
X025226Y028263D01*
X025118Y028277D01*
X024961D01*
X024852Y028263D01*
X024751Y028221D01*
X024665Y028154D01*
X024648Y028132D01*
X024515Y028178D01*
X024504Y02832D01*
X024646Y028443D01*
X025423D01*
D02*
G37*
G36*
X027413Y028631D02*
X027491Y028561D01*
X027508Y028534D01*
Y028505D01*
X027535Y028439D01*
X027585Y028389D01*
X027651Y028362D01*
X027722D01*
X027732Y028366D01*
X028377Y027721D01*
X02841Y027699D01*
X028449Y027691D01*
X028532D01*
X028533Y027684D01*
X028572Y027626D01*
X028631Y027586D01*
X028701Y027572D01*
X028812D01*
X028814Y027422D01*
X0288Y027409D01*
X028665Y027373D01*
Y027373D01*
X028368D01*
Y027373D01*
X028325D01*
Y027373D01*
X028028D01*
X028028Y027373D01*
X027878Y027372D01*
X027855Y027382D01*
X027784D01*
X027719Y027355D01*
X027668Y027304D01*
X027641Y027239D01*
Y027168D01*
X027666Y027093D01*
X027647Y027026D01*
X027434Y026812D01*
X027412Y026779D01*
X027404Y02674D01*
Y026436D01*
X027357D01*
Y025824D01*
X027654D01*
Y026264D01*
X027804Y026392D01*
X027855Y026384D01*
X027857Y026382D01*
X027857Y026356D01*
Y025824D01*
X027857Y025824D01*
X027837Y025682D01*
X027831Y025669D01*
Y025598D01*
X027858Y025533D01*
X027909Y025483D01*
X027974Y025455D01*
X028045D01*
X02811Y025483D01*
X02816Y025533D01*
X028188Y025598D01*
Y025669D01*
X028181Y025685D01*
X028154Y025824D01*
X028154Y025824D01*
X028154Y026344D01*
X028287Y026429D01*
X028355Y026399D01*
X028357Y026388D01*
Y025824D01*
X028357D01*
X028357Y02582D01*
X028331Y025759D01*
Y025688D01*
X028331Y025688D01*
X028333Y025684D01*
X028358Y025623D01*
X028409Y025573D01*
X028474Y025545D01*
X028545D01*
X028649Y025426D01*
Y023868D01*
X028577Y023795D01*
X027479D01*
X02744Y023788D01*
X027407Y023766D01*
X027177Y023536D01*
X027155Y023503D01*
X027147Y023464D01*
Y023389D01*
X026857D01*
Y023377D01*
X026745Y023262D01*
X026674D01*
X026609Y023235D01*
X026558Y023184D01*
X026531Y023119D01*
Y023048D01*
X026558Y022983D01*
X026609Y022933D01*
X026674Y022905D01*
X026745D01*
X026857Y02279D01*
Y022777D01*
X027147D01*
Y022614D01*
X027155Y022575D01*
X027177Y022541D01*
X027271Y022448D01*
X027304Y022425D01*
X027343Y022418D01*
X02791D01*
Y022351D01*
X028207Y022351D01*
X028357Y022351D01*
X028485D01*
X028572Y022312D01*
X028621Y022232D01*
Y022218D01*
X028648Y022153D01*
X028699Y022103D01*
X028764Y022075D01*
X028835D01*
X0289Y022103D01*
X02895Y022153D01*
X028978Y022218D01*
X028978Y022289D01*
X02896Y022359D01*
X02896Y022359D01*
Y02268D01*
X028911D01*
X028901Y022732D01*
X028871Y022777D01*
X028654Y022993D01*
Y023265D01*
X02866Y023297D01*
X028699Y023373D01*
X028752Y023431D01*
X028776Y023456D01*
X028963Y023643D01*
X028986Y023676D01*
X028993Y023715D01*
Y025317D01*
X029027Y02537D01*
X029138Y025383D01*
X029267Y025266D01*
Y023329D01*
X0292Y023262D01*
X029144D01*
X029079Y023235D01*
X029028Y023184D01*
X029001Y023119D01*
Y023048D01*
X029028Y022983D01*
X029079Y022933D01*
X029144Y022905D01*
X029215D01*
X02928Y022933D01*
X02933Y022983D01*
X029358Y023048D01*
X029378Y023055D01*
X029528Y022946D01*
Y02174D01*
X024496D01*
Y023536D01*
X024646Y023586D01*
X024665Y023562D01*
X024751Y023496D01*
X024852Y023454D01*
X024961Y02344D01*
X025118D01*
X025226Y023454D01*
X025327Y023496D01*
X025414Y023562D01*
X025481Y023649D01*
X02552Y023745D01*
X025528Y023752D01*
X025587Y023778D01*
X025737Y02369D01*
Y0235D01*
X025737D01*
X025737Y023389D01*
X025737D01*
X025737Y023092D01*
X025737Y022942D01*
Y022752D01*
X025737Y022752D01*
X025731Y022649D01*
Y022578D01*
X025758Y022513D01*
X025809Y022463D01*
X025874Y022435D01*
X025945D01*
X02601Y022463D01*
X02606Y022513D01*
X026088Y022578D01*
X026088Y022649D01*
X026074Y022752D01*
X026074Y022752D01*
X026074Y023049D01*
X026074Y023199D01*
Y023359D01*
X026174Y023465D01*
X026188Y023475D01*
X026255D01*
X02632Y023503D01*
X02637Y023553D01*
X026398Y023618D01*
Y023689D01*
X02637Y023754D01*
X02632Y023805D01*
X026255Y023832D01*
X02622D01*
X026182Y023834D01*
X026074Y023948D01*
Y024122D01*
X026074Y024137D01*
X026074D01*
X026066Y024269D01*
X026066D01*
Y02459D01*
X025745D01*
Y024269D01*
X025745Y024269D01*
X025726Y024127D01*
X025435D01*
X025414Y024154D01*
X025327Y024221D01*
X025226Y024263D01*
X025118Y024277D01*
X024961D01*
X024852Y024263D01*
X024751Y024221D01*
X024665Y024154D01*
X024646Y02413D01*
X024496Y024181D01*
Y025536D01*
X024646Y025587D01*
X024665Y025562D01*
X024751Y025496D01*
X024852Y025454D01*
X024961Y02544D01*
X025118D01*
X025226Y025454D01*
X025327Y025496D01*
X025414Y025562D01*
X025481Y025649D01*
X025522Y02575D01*
X025537Y025858D01*
X02555Y025873D01*
X025726D01*
X025745Y025731D01*
X025745Y025731D01*
X025745Y025731D01*
Y02541D01*
X026066D01*
X026066Y02541D01*
X026184Y025415D01*
X026255D01*
X02632Y025443D01*
X02637Y025493D01*
X026398Y025558D01*
Y025629D01*
X02637Y025694D01*
X02632Y025745D01*
X026255Y025772D01*
X026186D01*
X026177Y025779D01*
X026074Y025888D01*
X026074Y02616D01*
X026074Y02631D01*
Y0265D01*
X026043D01*
Y026721D01*
X026303D01*
X026318Y026684D01*
X026368Y026634D01*
X026434Y026607D01*
X026505D01*
X02657Y026634D01*
X02662Y026684D01*
X026647Y02675D01*
Y026821D01*
X026633Y026855D01*
X026637Y027005D01*
X026637D01*
Y027326D01*
X026614D01*
Y027593D01*
X026614Y027593D01*
X026604Y027645D01*
X026574Y02769D01*
X026574Y02769D01*
X026518Y027745D01*
X02652Y027754D01*
X026506Y027823D01*
X026467Y027882D01*
X026408Y027922D01*
X026379Y027927D01*
Y02808D01*
X026408Y028086D01*
X026467Y028126D01*
X026506Y028184D01*
X02652Y028254D01*
X026506Y028323D01*
X026467Y028382D01*
X026421Y028413D01*
X02641Y028496D01*
X026411Y028574D01*
X0265Y028652D01*
X027377D01*
X027413Y028631D01*
D02*
G37*
%LPC*%
G36*
X035498Y039076D02*
X035368D01*
X035243Y039043D01*
X03513Y038978D01*
X035038Y038886D01*
X034973Y038773D01*
X034939Y038648D01*
Y038518D01*
X034973Y038392D01*
X035038Y03828D01*
X03513Y038188D01*
X035243Y038123D01*
X035368Y038089D01*
X035498D01*
X035624Y038123D01*
X035736Y038188D01*
X035828Y03828D01*
X035893Y038392D01*
X035927Y038518D01*
Y038648D01*
X035893Y038773D01*
X035828Y038886D01*
X035736Y038978D01*
X035624Y039043D01*
X035498Y039076D01*
D02*
G37*
%LPD*%
D13*
X02811Y037474D02*
X028697D01*
X04148Y040585D02*
X041789Y040276D01*
Y036634D02*
Y040276D01*
X040765Y035609D02*
X041789Y036634D01*
X04148Y040585D02*
Y040748D01*
X0409Y036234D02*
X041559Y036894D01*
X04048Y040669D02*
X041559Y03959D01*
Y036894D02*
Y03959D01*
X039973Y036234D02*
X0409D01*
X040012Y035609D02*
X040765D01*
X039973Y035571D02*
X040012Y035609D01*
X039973Y035551D02*
Y035571D01*
X033279Y033444D02*
X033569D01*
X032819Y032984D02*
X033279Y033444D01*
X031599Y032984D02*
X032819D01*
X027646Y037394D02*
X027723Y03747D01*
X027609Y037394D02*
X027646D01*
X027723Y03747D02*
X02811D01*
X031619Y038044D02*
X031619Y038044D01*
X031339Y038044D02*
X031339Y038044D01*
X031619D01*
X030679Y038034D02*
X030685Y038039D01*
X03094D02*
X030945Y038044D01*
X030685Y038039D02*
X03094D01*
X030233Y038166D02*
X030236Y038162D01*
X030233Y038166D02*
Y03842D01*
X030229Y038424D02*
X030233Y03842D01*
X040659Y032604D02*
X040668Y032595D01*
X041371D02*
X043339Y030627D01*
X040668Y032595D02*
X041371D01*
X043339Y029227D02*
Y030627D01*
X044003Y028543D02*
Y028563D01*
X043339Y029227D02*
X044003Y028563D01*
X030313Y032668D02*
X030578Y032933D01*
Y032953D01*
X030118Y032618D02*
X030168Y032668D01*
X030313D01*
X041359Y032834D02*
X043559Y030634D01*
Y029971D02*
X044003Y029528D01*
X043559Y029971D02*
Y030634D01*
X041039Y032834D02*
X041359D01*
X041029Y032824D02*
X041039Y032834D01*
X039107Y035551D02*
X039633D01*
X030799Y028374D02*
X030805Y028368D01*
Y028079D02*
Y028368D01*
Y028079D02*
X030811Y028074D01*
X025928Y023651D02*
X026217D01*
X026219Y023654D01*
X025918Y023661D02*
X025928Y023651D01*
X025118Y032008D02*
X025525Y031601D01*
X02607D01*
X025039Y031026D02*
X025357Y031344D01*
X025039Y031008D02*
Y031026D01*
X026169Y031299D02*
Y031305D01*
X02613Y031344D02*
X026169Y031305D01*
X025357Y031344D02*
X02613D01*
X04328Y037795D02*
X044003D01*
X04328Y035787D02*
X044003D01*
X04328Y036772D02*
X044003D01*
X04328Y034803D02*
X044003D01*
X04328Y03378D02*
X044003D01*
X04328Y032756D02*
X044003D01*
X04328Y031732D02*
X044003D01*
X031713Y027677D02*
X031762Y027726D01*
X031713Y027283D02*
Y027677D01*
X031426Y027824D02*
Y027892D01*
X031515Y027981D02*
X031522D01*
X031586Y028052D02*
X031644Y02811D01*
X031309Y027707D02*
X031426Y027824D01*
X031586Y028045D02*
Y028052D01*
X031426Y027892D02*
X031515Y027981D01*
X031522D02*
X031586Y028045D01*
X031644Y02811D02*
Y02816D01*
X031762Y028278D01*
X025077Y024821D02*
X025868D01*
X025906Y024783D01*
X025039Y024858D02*
X025077Y024821D01*
X03935Y027205D02*
Y0275D01*
X039537Y027687D01*
Y028159D01*
X039733Y028159D02*
X039734Y028159D01*
X039733Y027233D02*
Y028159D01*
X039705Y027205D02*
X039733Y027233D01*
X039537Y030049D02*
Y030619D01*
Y029203D02*
X039636Y029104D01*
X039537Y029203D02*
Y030049D01*
X039734Y028159D02*
Y029006D01*
X039636Y029104D02*
X039734Y029006D01*
X040128Y030522D02*
X040699Y031093D01*
X040128Y030049D02*
Y030522D01*
X025039Y032008D02*
X025118D01*
X02607Y031601D02*
X026088Y03162D01*
X026169Y031634D02*
Y031654D01*
X026155Y03162D02*
X026169Y031634D01*
X026088Y03162D02*
X026155D01*
X028697Y037474D02*
X028701Y03747D01*
X025906Y023649D02*
X025918Y023661D01*
X025906Y023241D02*
Y023649D01*
X04048Y040669D02*
Y040748D01*
X042677Y037795D02*
X04294D01*
X042677Y036772D02*
X04294D01*
X042677Y035787D02*
X04294D01*
X042677Y034803D02*
X04294D01*
X042677Y03378D02*
X04294D01*
X042677Y032756D02*
X04294D01*
X039107Y036234D02*
X039633D01*
X028701Y03747D02*
X028703Y037472D01*
Y037828D01*
X028701Y03747D02*
X029232D01*
X029232Y037388D02*
Y03747D01*
X029232Y03747D02*
X029232Y03747D01*
X029737Y037874D02*
Y038124D01*
X029626Y037743D02*
X029737Y037854D01*
Y037874D01*
X029626Y037388D02*
Y037743D01*
X029428Y037389D02*
Y037843D01*
X029397Y037874D02*
X029428Y037843D01*
Y037389D02*
X029429Y037388D01*
X030236Y037453D02*
Y037822D01*
X029823Y037453D02*
X029824Y037453D01*
X030236D01*
X029823Y037388D02*
Y037453D01*
X029923Y037008D02*
X030028Y037113D01*
X029528Y037008D02*
X029923D01*
X030028Y037113D02*
X030236D01*
X030103Y036628D02*
X030236Y036761D01*
Y037113D01*
X029823Y036628D02*
X030103D01*
X028735Y036973D02*
X029413D01*
X029429Y036628D02*
Y036957D01*
X029413Y036973D02*
X029429Y036957D01*
X02811Y036939D02*
X028701D01*
X028735Y036973D01*
X028886Y035982D02*
X029232Y036329D01*
X028886Y035906D02*
Y035982D01*
X029232Y036329D02*
Y036628D01*
X029618Y035906D02*
X029626Y035913D01*
Y036628D01*
X031732Y038792D02*
Y039071D01*
X031339Y038792D02*
Y039053D01*
X030947Y038799D02*
X030949Y038797D01*
X030947Y038799D02*
Y039051D01*
X030949Y039054D01*
X030945Y038792D02*
X030949Y038797D01*
D17*
X034282Y030927D02*
X035029Y031674D01*
X032938Y030927D02*
X034282D01*
X035029Y031674D02*
X035289D01*
X034831Y031725D02*
Y031725D01*
X032889Y031047D02*
X034152D01*
X034831Y031725D01*
Y031725D02*
X035009Y031904D01*
X032839Y031167D02*
X033942D01*
X034389Y031614D01*
X034398Y030807D02*
X034955Y031364D01*
X035449D01*
X033002Y030807D02*
X034398D01*
X03245Y030954D02*
X032627D01*
X03245Y030797D02*
X032639D01*
X032651Y030639D02*
X032938Y030927D01*
X032627Y030954D02*
X032839Y031167D01*
X032639Y030797D02*
X032889Y031047D01*
X03245Y030639D02*
X032651D01*
X03245Y030482D02*
X032677D01*
X033002Y030807D01*
X032441Y030945D02*
X03245Y030954D01*
X032441Y030787D02*
X03245Y030797D01*
X032441Y03063D02*
X03245Y030639D01*
X032441Y030472D02*
X03245Y030482D01*
X032089Y031104D02*
X03209Y031103D01*
X03244D02*
X032441Y031102D01*
X03209Y031103D02*
X03244D01*
D19*
X026122Y029254D02*
D03*
Y028754D02*
D03*
Y028254D02*
D03*
Y027754D02*
D03*
X028917Y029254D02*
D03*
Y028754D02*
D03*
Y028254D02*
D03*
Y027754D02*
D03*
D20*
X034331Y030571D02*
D03*
Y030217D02*
D03*
X033937Y030571D02*
D03*
Y030217D02*
D03*
X033465Y029823D02*
D03*
Y029469D02*
D03*
X030439Y028721D02*
D03*
Y028366D02*
D03*
X030118Y032618D02*
D03*
Y032972D02*
D03*
X025906Y024429D02*
D03*
Y024783D02*
D03*
X041053Y031093D02*
D03*
Y031447D02*
D03*
X040699Y031093D02*
D03*
Y031447D02*
D03*
X041486Y028494D02*
D03*
Y02814D02*
D03*
X031339Y032972D02*
D03*
Y032618D02*
D03*
X038093Y029516D02*
D03*
Y029871D02*
D03*
X025906Y025217D02*
D03*
Y025571D02*
D03*
X041486Y029321D02*
D03*
Y028967D02*
D03*
D21*
X033169Y030197D02*
D03*
X033524D02*
D03*
X034665Y029803D02*
D03*
X03502D02*
D03*
X032579Y028898D02*
D03*
X032933D02*
D03*
X032579Y028543D02*
D03*
X032933D02*
D03*
X032579Y028189D02*
D03*
X032933D02*
D03*
X031358Y028701D02*
D03*
X031713D02*
D03*
Y027283D02*
D03*
X031358D02*
D03*
X026476Y027165D02*
D03*
X026122D02*
D03*
X029035Y03248D02*
D03*
X028681D02*
D03*
X029035Y032126D02*
D03*
X028681D02*
D03*
X041309Y027569D02*
D03*
X040955D02*
D03*
X040128D02*
D03*
X040482D02*
D03*
X038907D02*
D03*
X038553D02*
D03*
X038081D02*
D03*
X037726D02*
D03*
X029154Y02252D02*
D03*
X028799D02*
D03*
X03812Y030994D02*
D03*
X038474D02*
D03*
X03935Y027205D02*
D03*
X039705D02*
D03*
X040128Y030994D02*
D03*
X039774D02*
D03*
X039301D02*
D03*
X038947D02*
D03*
D22*
X033535Y030591D02*
D03*
X033157D02*
D03*
X034244Y029803D02*
D03*
X033866D02*
D03*
D23*
X03466Y028933D02*
D03*
D24*
X034069Y028254D02*
D03*
X035251D02*
D03*
D25*
X030799Y028374D02*
D03*
Y028714D02*
D03*
X030236Y037113D02*
D03*
Y037453D02*
D03*
Y037822D02*
D03*
Y038162D02*
D03*
X0381Y031715D02*
D03*
Y031375D02*
D03*
X030945Y038044D02*
D03*
Y037704D02*
D03*
X031339Y038044D02*
D03*
Y037704D02*
D03*
X030945Y038452D02*
D03*
Y038792D02*
D03*
X025906Y026011D02*
D03*
Y026351D02*
D03*
X025906Y023241D02*
D03*
Y022901D02*
D03*
X031339Y038452D02*
D03*
Y038792D02*
D03*
X025906Y023649D02*
D03*
Y023989D02*
D03*
X031732Y038452D02*
D03*
Y038792D02*
D03*
X0381Y026848D02*
D03*
Y027188D02*
D03*
X038888Y026848D02*
D03*
Y027188D02*
D03*
X040108Y026848D02*
D03*
Y027188D02*
D03*
X041722Y027202D02*
D03*
Y027542D02*
D03*
X040148Y031715D02*
D03*
Y031375D02*
D03*
X039321Y031715D02*
D03*
Y031375D02*
D03*
D26*
X031762Y028278D02*
D03*
X031309D02*
D03*
Y027707D02*
D03*
X031762D02*
D03*
D27*
X028176Y027205D02*
D03*
X028516D02*
D03*
X030578Y032953D02*
D03*
X030918D02*
D03*
X028688Y031772D02*
D03*
X029028D02*
D03*
X028688Y031417D02*
D03*
X029028D02*
D03*
X028688Y030984D02*
D03*
X029028D02*
D03*
X028688Y03063D02*
D03*
X029028D02*
D03*
X028688Y030276D02*
D03*
X029028D02*
D03*
X044343Y031732D02*
D03*
X044003D02*
D03*
Y036772D02*
D03*
X044343D02*
D03*
X044003Y037795D02*
D03*
X044343D02*
D03*
X026902Y037126D02*
D03*
X026562D02*
D03*
X026902Y036142D02*
D03*
X026562D02*
D03*
X029737Y037874D02*
D03*
X029397D02*
D03*
X037576Y029065D02*
D03*
X037916D02*
D03*
X028058Y02252D02*
D03*
X028398D02*
D03*
X04328Y036772D02*
D03*
X04294D02*
D03*
X04328Y035787D02*
D03*
X04294D02*
D03*
X04328Y034803D02*
D03*
X04294D02*
D03*
X04328Y03378D02*
D03*
X04294D02*
D03*
X04328Y032756D02*
D03*
X04294D02*
D03*
X04328Y031732D02*
D03*
X04294D02*
D03*
X039107Y035551D02*
D03*
X038767D02*
D03*
X039107Y036234D02*
D03*
X038767D02*
D03*
X044003Y035787D02*
D03*
X044343D02*
D03*
X044003Y032756D02*
D03*
X044343D02*
D03*
X044003Y03378D02*
D03*
X044343D02*
D03*
X044003Y034803D02*
D03*
X044343D02*
D03*
X026509Y031654D02*
D03*
X026169D02*
D03*
X026509Y031299D02*
D03*
X026169D02*
D03*
X037383Y029503D02*
D03*
X037723D02*
D03*
X037916Y028356D02*
D03*
X037576D02*
D03*
X026902Y03815D02*
D03*
X026562D02*
D03*
X026902Y035157D02*
D03*
X026562D02*
D03*
X044343Y029528D02*
D03*
X044003D02*
D03*
X026902Y034134D02*
D03*
X026562D02*
D03*
X044343Y028543D02*
D03*
X044003D02*
D03*
X026902Y03315D02*
D03*
X026562D02*
D03*
X039633Y036234D02*
D03*
X039973D02*
D03*
X039633Y035551D02*
D03*
X039973D02*
D03*
X04328Y037795D02*
D03*
X04294D02*
D03*
X028516Y026693D02*
D03*
X028176D02*
D03*
X037576Y028711D02*
D03*
X037916D02*
D03*
X042207Y028514D02*
D03*
X041867D02*
D03*
X042207Y029301D02*
D03*
X041867D02*
D03*
D28*
X032441Y031732D02*
D03*
Y031575D02*
D03*
Y031417D02*
D03*
X029764Y029685D02*
D03*
Y029843D02*
D03*
Y03D02*
D03*
Y030157D02*
D03*
Y030315D02*
D03*
Y030472D02*
D03*
Y03063D02*
D03*
Y030787D02*
D03*
Y030945D02*
D03*
Y031102D02*
D03*
Y03126D02*
D03*
Y031417D02*
D03*
Y031575D02*
D03*
Y031732D02*
D03*
X032441Y03126D02*
D03*
Y031102D02*
D03*
Y030945D02*
D03*
Y030787D02*
D03*
Y03063D02*
D03*
Y030472D02*
D03*
Y030315D02*
D03*
Y030157D02*
D03*
Y03D02*
D03*
Y029843D02*
D03*
Y029685D02*
D03*
D29*
X031102Y030709D02*
D03*
D30*
X032126Y02937D02*
D03*
X031969D02*
D03*
X031811D02*
D03*
X031654D02*
D03*
X031496D02*
D03*
X031339D02*
D03*
X031181D02*
D03*
X031024D02*
D03*
X030866D02*
D03*
X030709D02*
D03*
X030551D02*
D03*
X030394D02*
D03*
X030236D02*
D03*
X030079D02*
D03*
Y032047D02*
D03*
X030236D02*
D03*
X030394D02*
D03*
X030551D02*
D03*
X030709D02*
D03*
X030866D02*
D03*
X031024D02*
D03*
X031181D02*
D03*
X031339D02*
D03*
X031496D02*
D03*
X031654D02*
D03*
X031811D02*
D03*
X031969D02*
D03*
X032126D02*
D03*
D31*
X034813Y030591D02*
D03*
X035344D02*
D03*
D32*
X028701Y036939D02*
D03*
Y03747D02*
D03*
X02811D02*
D03*
Y036939D02*
D03*
D33*
X028886Y035906D02*
D03*
X029618D02*
D03*
D34*
X029528Y037008D02*
D03*
D35*
X029823Y037388D02*
D03*
X029626D02*
D03*
X029429D02*
D03*
X029232D02*
D03*
X029823Y036628D02*
D03*
X029626D02*
D03*
X029429D02*
D03*
X029232D02*
D03*
D36*
X028506Y02613D02*
D03*
X028006D02*
D03*
X027506D02*
D03*
X027006D02*
D03*
X028506Y023083D02*
D03*
X028006D02*
D03*
X027506D02*
D03*
X027006D02*
D03*
D37*
X038947Y028159D02*
D03*
X039144D02*
D03*
X039341D02*
D03*
X039537D02*
D03*
X039734D02*
D03*
X039931D02*
D03*
X040128D02*
D03*
X040325D02*
D03*
Y030049D02*
D03*
X040128D02*
D03*
X039931D02*
D03*
X039734D02*
D03*
X039537D02*
D03*
X039341D02*
D03*
X039144D02*
D03*
X038947D02*
D03*
D38*
X040581Y028415D02*
D03*
Y028612D02*
D03*
Y028809D02*
D03*
Y029006D02*
D03*
Y029203D02*
D03*
Y0294D02*
D03*
Y029596D02*
D03*
Y029793D02*
D03*
X038691D02*
D03*
Y029596D02*
D03*
Y0294D02*
D03*
Y029203D02*
D03*
Y029006D02*
D03*
Y028809D02*
D03*
Y028612D02*
D03*
Y028415D02*
D03*
D39*
X039636Y029104D02*
D03*
D40*
X028346Y040315D02*
D03*
X027795D02*
D03*
D41*
X043504Y038701D02*
D03*
Y039252D02*
D03*
D72*
X027756Y024606D02*
D03*
D73*
X029179Y023084D02*
Y023097D01*
X029369Y023287D02*
Y02666D01*
X029179Y023097D02*
X029369Y023287D01*
X030394Y028954D02*
Y02937D01*
X029199Y029497D02*
Y029904D01*
Y029497D02*
X029391Y029305D01*
X029199Y029904D02*
X029431Y030135D01*
X02952D01*
X029582Y029999D02*
X029763D01*
X029578Y029995D02*
X029582Y029999D01*
X029356Y029538D02*
Y029841D01*
X029511Y029995D01*
X029578D01*
X02952Y030135D02*
X029541Y030157D01*
X029496Y029597D02*
Y029766D01*
X029573Y029842D02*
X029763D01*
X029496Y029766D02*
X029573Y029842D01*
X02586Y028293D02*
X026161D01*
X025669Y028484D02*
Y029484D01*
Y028484D02*
X02586Y028293D01*
X027509Y028874D02*
Y030154D01*
X026122Y028754D02*
X02739D01*
X027509Y028874D01*
X026122Y029254D02*
X026122Y029254D01*
X026789D02*
X026789Y029254D01*
X026122Y029254D02*
X026789D01*
X028917Y027381D02*
Y027754D01*
X028741Y027205D02*
X028917Y027381D01*
X028516Y027205D02*
X028741D01*
X028751Y023825D02*
Y026635D01*
X029559Y027444D01*
X029109Y025624D02*
Y026598D01*
X027719Y026954D02*
X028859D01*
X028891Y023715D02*
Y026577D01*
X029559Y027444D02*
Y029335D01*
X029709Y027396D02*
Y029384D01*
X029369Y02666D02*
X030009Y0273D01*
X029109Y026598D02*
X029859Y027348D01*
X028859Y026954D02*
X029391Y027485D01*
Y029305D01*
X030009Y0273D02*
Y029174D01*
X028891Y026577D02*
X029709Y027396D01*
X029859Y027348D02*
Y029684D01*
X030236Y029069D02*
Y02937D01*
X030149Y028982D02*
X030236Y029069D01*
X030149Y027124D02*
Y028982D01*
X029356Y029538D02*
X029559Y029335D01*
X029496Y029597D02*
X029709Y029384D01*
X027506Y02674D02*
X027719Y026954D01*
X027506Y02613D02*
Y02674D01*
X029859Y029685D02*
X029859Y029684D01*
X029764Y029685D02*
X029859D01*
X030009Y029174D02*
X030078Y029243D01*
X030398Y028679D02*
X030439Y028721D01*
X031024Y029218D02*
Y029369D01*
Y029218D02*
X031039Y029203D01*
Y027928D02*
Y029203D01*
X030839Y027728D02*
X031039Y027928D01*
X031024Y02937D02*
X031024Y029369D01*
X029763Y029842D02*
X029764Y029843D01*
X02676Y031566D02*
X026956Y031763D01*
Y031935D01*
X026834Y031386D02*
X027136Y031689D01*
X027429Y032215D02*
X027487Y032274D01*
X027136Y031689D02*
Y031861D01*
X027487Y031977D02*
X027529D01*
X027237Y032215D02*
X027429D01*
X027311Y032035D02*
X027429D01*
X027136Y031861D02*
X027311Y032035D01*
X026956Y031935D02*
X027237Y032215D01*
X027429Y032035D02*
X027487Y031977D01*
X026604Y031386D02*
X026834D01*
X027487Y032274D02*
X027529D01*
X026604Y031566D02*
X02676D01*
X02855Y031634D02*
X02862Y031703D01*
X028688Y031752D02*
Y031772D01*
X02862Y031703D02*
X02864D01*
X027819Y031634D02*
X02855D01*
X025669Y029484D02*
X027819Y031634D01*
X02864Y031703D02*
X028688Y031752D01*
X038005Y036019D02*
X038912D01*
X033223Y034194D02*
X036179D01*
X038005Y036019D01*
X036249Y034024D02*
X038069Y035844D01*
X038834D01*
X033251Y034024D02*
X036249D01*
X032653Y033624D02*
X033223Y034194D01*
X032709Y033482D02*
X033251Y034024D01*
X032126Y032047D02*
X032689D01*
X033327Y033704D02*
X036388D01*
X029998Y033482D02*
X032709D01*
X032767Y033342D02*
X033269Y033844D01*
X032778Y032334D02*
X033309Y032865D01*
X03275Y032504D02*
X033261Y033015D01*
X032692Y032644D02*
X033205Y033157D01*
X031226Y033202D02*
X032825D01*
X029869Y033624D02*
X032653D01*
X033269Y033844D02*
X03633D01*
X032047Y032334D02*
X032778D01*
X033205Y033157D02*
X036039D01*
X033261Y033015D02*
X036095D01*
X032825Y033202D02*
X033327Y033704D01*
X031961Y032644D02*
X032692D01*
X033367Y032725D02*
X036201D01*
X031168Y033342D02*
X032767D01*
X032019Y032504D02*
X03275D01*
X033309Y032865D02*
X036143D01*
X032689Y032047D02*
X033367Y032725D01*
X033407Y032561D02*
X036238D01*
X032578Y031732D02*
X033407Y032561D01*
X032441Y031732D02*
X032578D01*
X032651Y031575D02*
X033489Y032414D01*
X032693Y031417D02*
X033549Y032274D01*
X032441Y031575D02*
X032651D01*
X033489Y032414D02*
X03631D01*
X033549Y032274D02*
X036391D01*
X032441Y031417D02*
X032693D01*
X032441Y03126D02*
X032746D01*
X033619Y032134D01*
X036449D01*
X03682Y034334D02*
X040539D01*
X03724Y033344D02*
X042864D01*
X0373Y033182D02*
X042874D01*
X036201Y032725D02*
X0371Y033624D01*
X041129D01*
X03631Y032414D02*
X03724Y033344D01*
X036095Y033015D02*
X036984Y033904D01*
X036391Y032274D02*
X0373Y033182D01*
X03716Y033484D02*
X041961D01*
X036238Y032561D02*
X03716Y033484D01*
X037042Y033764D02*
X040999D01*
X037358Y033042D02*
X042083D01*
X036868Y034184D02*
X040698D01*
X036143Y032865D02*
X037042Y033764D01*
X03633Y033844D02*
X03682Y034334D01*
X036984Y033904D02*
X040899D01*
X036449Y032134D02*
X037358Y033042D01*
X036926Y034044D02*
X040756D01*
X036039Y033157D02*
X036926Y034044D01*
X036388Y033704D02*
X036868Y034184D01*
X040539Y034334D02*
X040669Y034464D01*
X040756Y034044D02*
X042089Y035377D01*
X040899Y033904D02*
X042269Y035274D01*
X041129Y033624D02*
X043225Y035719D01*
X042864Y033344D02*
X04328Y03376D01*
X040999Y033764D02*
X042459Y035223D01*
X041961Y033484D02*
X04328Y034803D01*
X040698Y034184D02*
X041009Y034495D01*
X030969Y032624D02*
Y032953D01*
X042089Y035377D02*
Y038234D01*
X041009Y034495D02*
Y034774D01*
X030969Y032953D02*
Y033144D01*
X031168Y033342D01*
X030709Y032363D02*
X030969Y032624D01*
X030709Y032047D02*
Y032363D01*
X031109Y033086D02*
X031226Y033202D01*
X031109Y032554D02*
Y033086D01*
X030866Y03231D02*
X031109Y032554D01*
X030866Y032047D02*
Y03231D01*
X042083Y033042D02*
X04263Y032494D01*
X042874Y033182D02*
X04328Y032776D01*
X029649Y033134D02*
X029998Y033482D01*
X029439Y033194D02*
X029869Y033624D01*
X029819Y033864D02*
X032579D01*
X032341Y034125D02*
X032349Y034134D01*
X029618Y034125D02*
X032341D01*
X02961Y034134D02*
X029618Y034125D01*
X026903Y034134D02*
X02961D01*
X026902Y034134D02*
X026903Y034134D01*
X027716Y034344D02*
X032089D01*
X027779Y034564D02*
X031839D01*
X038834Y035844D02*
X039107Y035571D01*
Y035551D02*
Y035571D01*
X038912Y036019D02*
X039107Y036214D01*
X028632Y027793D02*
X028649Y027776D01*
X027702Y02854D02*
X028449Y027793D01*
X028632D01*
X027686Y02854D02*
X027702D01*
X028619Y023694D02*
X028751Y023825D01*
X028679Y023504D02*
X028891Y023715D01*
X027249Y022614D02*
Y023464D01*
X027343Y02252D02*
X028058D01*
X028006Y022592D02*
Y023083D01*
X027249Y023464D02*
X027479Y023694D01*
X027249Y022614D02*
X027343Y02252D01*
X028006Y022592D02*
X028058Y022539D01*
X027479Y023694D02*
X028619D01*
X028058Y02252D02*
Y022539D01*
X030551Y032175D02*
Y03232D01*
X030469Y032401D02*
Y032444D01*
X030551Y032047D02*
Y032174D01*
X030551Y032175D02*
X030551Y032174D01*
X030469Y032401D02*
X030551Y03232D01*
X030236Y032047D02*
Y0325D01*
X030118Y032618D02*
X030236Y0325D01*
X026509Y031634D02*
Y031654D01*
Y031299D02*
Y031319D01*
X030393Y032047D02*
X030394Y032047D01*
X030393Y031829D02*
Y032047D01*
X026509Y031634D02*
X026557Y031585D01*
X026585D01*
X026585Y031367D02*
X026604Y031386D01*
X026557Y031367D02*
X026585D01*
X026585Y031585D02*
X026604Y031566D01*
X026509Y031319D02*
X026557Y031367D01*
X027169Y035174D02*
Y037863D01*
X029649Y032434D02*
Y033134D01*
X029439Y032374D02*
Y033194D01*
X029106Y03315D02*
X029819Y033864D01*
X026971Y035089D02*
X027716Y034344D01*
X027169Y035174D02*
X027779Y034564D01*
X029439Y032374D02*
X029764Y032049D01*
X026902Y035138D02*
Y035157D01*
Y035138D02*
X026951Y035089D01*
X026971D01*
X026902Y03315D02*
X029106D01*
X026902Y03813D02*
Y03815D01*
Y03813D02*
X027169Y037863D01*
X039107Y036214D02*
Y036234D01*
X029649Y032434D02*
X029769Y032314D01*
X029764Y031732D02*
Y032049D01*
X029769Y032314D02*
X029939D01*
X030079Y032174D01*
Y032047D02*
Y032174D01*
X04328Y03376D02*
Y03378D01*
X043232Y035719D02*
X04328Y035768D01*
X043225Y035719D02*
X043232D01*
X04328Y035768D02*
Y035787D01*
X042459Y035223D02*
Y036323D01*
X042269Y035274D02*
Y037964D01*
X042992Y036464D02*
X04328Y036752D01*
Y036772D01*
X042599Y036464D02*
X042992D01*
X042459Y036323D02*
X042599Y036464D01*
X042952Y038144D02*
X04328Y037815D01*
Y037795D02*
Y037815D01*
X042449Y038144D02*
X042952D01*
X042269Y037964D02*
X042449Y038144D01*
X042089Y038234D02*
X042557Y038701D01*
X043504D01*
X031654Y032336D02*
X031961Y032644D01*
X031654Y032047D02*
Y032336D01*
X031811Y032295D02*
X032019Y032504D01*
X031811Y032047D02*
Y032295D01*
X031969Y032255D02*
X032047Y032334D01*
X031969Y032047D02*
X031969Y032048D01*
Y032255D01*
X04328Y031732D02*
Y032253D01*
X04263Y032494D02*
X043039D01*
X04328Y032253D01*
Y032756D02*
Y032776D01*
X036349Y030974D02*
X037599Y032224D01*
X036349Y027924D02*
Y030974D01*
X037599Y032224D02*
X03962D01*
X035209Y026784D02*
X036349Y027924D01*
X036649Y030834D02*
X037819Y032004D01*
X036649Y027704D02*
Y030834D01*
X036959Y030684D02*
X037943Y031667D01*
X036959Y027479D02*
Y030684D01*
X037819Y032004D02*
X039013D01*
X039301Y031715D01*
X041184Y029654D02*
X041203D01*
X04093Y0294D02*
X041184Y029654D01*
X040581Y0294D02*
X04093D01*
X040325Y030049D02*
X040629D01*
X040709Y029793D02*
X041193Y030278D01*
X040581Y029793D02*
X040709D01*
X040836Y029596D02*
X041213Y029973D01*
X040581Y029596D02*
X040836D01*
X032109Y030314D02*
X03211Y030314D01*
X03244D02*
X032441Y030315D01*
X03211Y030314D02*
X03244D01*
X026709Y023084D02*
X027005D01*
X027006Y023083D01*
X028506Y02613D02*
X028508Y026128D01*
Y025725D02*
Y026128D01*
Y025725D02*
X028509Y025724D01*
X028008Y025635D02*
Y026128D01*
Y025635D02*
X028009Y025634D01*
X028006Y02613D02*
X028008Y026128D01*
X027769Y023504D02*
X028679D01*
X027506Y02324D02*
X027769Y023504D01*
X027506Y023083D02*
Y02324D01*
X028511Y026135D02*
Y026688D01*
X028506Y02613D02*
X028511Y026135D01*
Y026688D02*
X028516Y026693D01*
X029763Y029999D02*
X029764Y03D01*
X029541Y030157D02*
X029763D01*
X029764Y030157D01*
X029763Y030316D02*
X029764Y030315D01*
X029472Y030354D02*
X02951Y030316D01*
X029763D01*
X029429Y030354D02*
X029472D01*
X029373Y03063D02*
X029764D01*
X029087Y030344D02*
X029373Y03063D01*
X029028Y030295D02*
X029077Y030344D01*
X029087D01*
X029764Y030473D02*
X030089D01*
X030099Y030484D01*
X029764Y030472D02*
X029764Y030473D01*
X028272Y030916D02*
X02864D01*
X027509Y030154D02*
X028272Y030916D01*
X028261Y03063D02*
X028688D01*
X027709Y028826D02*
Y030079D01*
X028261Y03063D01*
X027949Y02907D02*
Y029974D01*
Y02907D02*
X028226Y028793D01*
X02864Y030227D02*
X028688Y030276D01*
X02864Y030164D02*
Y030227D01*
X028199Y029724D02*
Y029724D01*
X02864Y030164D01*
X028226Y028793D02*
X028632D01*
X028242Y028293D02*
X028632D01*
X027709Y028826D02*
X028242Y028293D01*
X028688Y030965D02*
Y030984D01*
X02864Y030916D02*
X028688Y030965D01*
X027941Y031415D02*
X028686D01*
X027939Y031414D02*
X027941Y031415D01*
X028686D02*
X028688Y031417D01*
X028189Y031194D02*
X029249D01*
X030748Y028713D02*
X030768D01*
X030866Y028812D02*
Y02937D01*
X030768Y028713D02*
X030866Y028812D01*
X031762Y027726D02*
X032079Y028044D01*
Y028694D01*
X031654Y029119D02*
X032079Y028694D01*
X031654Y029119D02*
Y02937D01*
X032129Y028854D02*
X032535D01*
X031811Y029172D02*
X032129Y028854D01*
X031811Y029172D02*
Y02937D01*
X032279Y029084D02*
Y02909D01*
X032126Y029243D02*
X032279Y02909D01*
X032535Y028854D02*
X032579Y028898D01*
X032126Y029243D02*
Y02937D01*
X031309Y028278D02*
X031358Y028327D01*
Y028701D01*
X031496Y028839D02*
Y02937D01*
X031358Y028701D02*
X031496Y028839D01*
X029028Y030276D02*
Y030295D01*
Y03065D02*
X029166Y030787D01*
X029764D01*
X029028Y03063D02*
Y03065D01*
X029067Y030946D02*
X029763D01*
X029028Y030984D02*
X029067Y030946D01*
X029763D02*
X029764Y030945D01*
X029249Y031194D02*
X029341Y031102D01*
X029764D01*
X029403Y03126D02*
X029764D01*
X029269Y031394D02*
X029403Y03126D01*
X029052Y031394D02*
X029269D01*
X029028Y031417D02*
X029052Y031394D01*
X029077Y031703D02*
X02919D01*
X029028Y031752D02*
Y031772D01*
X029476Y031417D02*
X029764D01*
X02919Y031703D02*
X029476Y031417D01*
X029028Y031752D02*
X029077Y031703D01*
X029439Y031652D02*
X029517Y031575D01*
X029439Y031652D02*
Y031984D01*
X029517Y031575D02*
X029764D01*
X029038Y032124D02*
X029299D01*
X029035Y032126D02*
X029038Y032124D01*
X029299D02*
X029439Y031984D01*
X031339Y032047D02*
Y032618D01*
X031339Y032618D02*
X031339Y032618D01*
X032559Y028917D02*
Y029684D01*
X032441Y029685D02*
X032559D01*
X032559Y029684D01*
X032839Y030234D02*
X033167D01*
X032441Y030157D02*
X032763D01*
X032839Y030234D01*
X032441Y03D02*
Y030157D01*
Y029843D02*
X03278D01*
X032819Y029804D01*
X036422Y026154D02*
Y026154D01*
X037199Y026931D02*
Y0293D01*
X036422Y026154D02*
X037199Y026931D01*
X037209Y026154D02*
X037903Y026848D01*
X037209Y026154D02*
Y026154D01*
X037903Y026848D02*
X0381D01*
X038414Y026394D02*
X038868Y026848D01*
X038236Y026394D02*
X038414D01*
X037996Y026154D02*
X038236Y026394D01*
X037726Y027569D02*
X037787Y027629D01*
X038559Y028404D02*
Y028407D01*
X037787Y027629D02*
Y027631D01*
X038568Y028415D02*
X038691D01*
X037787Y027631D02*
X038559Y028404D01*
Y028407D02*
X038568Y028415D01*
X038081Y027569D02*
X038671Y028159D01*
X038947D01*
X038848Y027864D02*
X039083D01*
X038553Y027569D02*
X038848Y027864D01*
X038081Y027569D02*
X038091Y027559D01*
Y027198D02*
Y027559D01*
Y027198D02*
X0381Y027188D01*
X039083Y027864D02*
X03914Y02792D01*
Y028156D01*
X039144Y028159D01*
X038898Y027559D02*
X038907Y027569D01*
X038898Y027198D02*
Y027559D01*
X038888Y027188D02*
X038898Y027198D01*
X038907Y027569D02*
X039062Y027724D01*
X039269D01*
X039341Y027795D01*
Y028159D01*
X040118Y027198D02*
Y027559D01*
X040128Y027569D01*
X040108Y027188D02*
X040118Y027198D01*
X040328Y028015D02*
Y028156D01*
X040499Y027844D02*
X04068D01*
X040325Y028159D02*
X040328Y028156D01*
Y028015D02*
X040499Y027844D01*
X04068D02*
X040955Y027569D01*
X039931Y027766D02*
X040128Y027569D01*
X039931Y027766D02*
Y028159D01*
X040131Y02792D02*
X040482Y027569D01*
X040131Y02792D02*
Y028156D01*
X040128Y028159D02*
X040131Y028156D01*
X041309Y027569D02*
X041322Y027555D01*
X041286Y027592D02*
X041309Y027569D01*
X041286Y027592D02*
Y028047D01*
X040918Y028415D02*
X041286Y028047D01*
X040581Y028415D02*
X040918D01*
X041709Y027555D02*
X041722Y027542D01*
X041322Y027555D02*
X041709D01*
X042207Y029281D02*
Y029301D01*
Y029281D02*
X042629Y028859D01*
Y027004D02*
Y028859D01*
X041779Y026154D02*
X042629Y027004D01*
X041146Y026154D02*
X041779D01*
X041099Y026894D02*
X042019D01*
X042207Y027081D01*
X040359Y026154D02*
X041099Y026894D01*
X042207Y027081D02*
Y028514D01*
X039919Y026154D02*
X040968Y027202D01*
X041722D01*
X039571Y026154D02*
X039919D01*
X038868Y026848D02*
X038888D01*
X038784Y026154D02*
X039144Y026514D01*
X039754D01*
X040089Y026848D02*
X040108D01*
X039754Y026514D02*
X040089Y026848D01*
X037383Y029484D02*
Y029503D01*
X037199Y0293D02*
X037383Y029484D01*
X038052Y031667D02*
X0381Y031715D01*
X037943Y031667D02*
X038052D01*
X035099Y026154D02*
X036649Y027704D01*
X035634Y026154D02*
X036959Y027479D01*
X034847Y026154D02*
X035099D01*
X034689Y026784D02*
X035209D01*
X039301Y031715D02*
X039321D01*
X034059Y026154D02*
X034689Y026784D01*
X040128Y031715D02*
X040148D01*
X03962Y032224D02*
X040128Y031715D01*
X038087Y02951D02*
X038093Y029516D01*
X03773Y02951D02*
X038087D01*
X037723Y029503D02*
X03773Y02951D01*
X038093Y029516D02*
X03821Y0294D01*
X038691D01*
X038367Y029596D02*
X038691D01*
X038093Y029871D02*
X038367Y029596D01*
X03812Y030679D02*
Y030994D01*
Y030679D02*
X038691Y030108D01*
Y029793D02*
Y030108D01*
X040128Y030788D02*
Y030994D01*
X039931Y030049D02*
Y030591D01*
X040128Y030788D01*
Y030994D02*
X040138Y031004D01*
X039341Y030049D02*
Y030182D01*
X039301Y030222D02*
X039341Y030182D01*
X039734Y030049D02*
Y030508D01*
X039774Y030547D02*
Y030994D01*
X039734Y030508D02*
X039774Y030547D01*
X039301Y030222D02*
Y030994D01*
X040138Y031004D02*
Y031365D01*
X040148Y031375D01*
X039311Y031004D02*
Y031365D01*
X039321Y031375D01*
X039301Y030994D02*
X039311Y031004D01*
X038947Y03048D02*
Y030994D01*
Y03048D02*
X03914Y030287D01*
Y030053D02*
Y030287D01*
Y030053D02*
X039144Y030049D01*
X038474Y03065D02*
X038947Y030177D01*
Y030049D02*
Y030177D01*
X038474Y03065D02*
Y030994D01*
X03811Y031004D02*
X03812Y030994D01*
X03811Y031004D02*
Y031365D01*
X0381Y031375D02*
X03811Y031365D01*
X037916Y029065D02*
X038165D01*
X038303Y029203D01*
X038691D01*
X038111Y028711D02*
X038406Y029006D01*
X037916Y028711D02*
X038111D01*
X038406Y029006D02*
X038691D01*
X038125Y028383D02*
X038353Y028612D01*
X037943Y028383D02*
X038125D01*
X038353Y028612D02*
X038691D01*
X037916Y028356D02*
X037943Y028383D01*
X040581Y028612D02*
X041014D01*
X041486Y02814D01*
Y028494D02*
X041496Y028504D01*
X041858D01*
X041867Y028514D01*
X040581Y028809D02*
X041171D01*
X041486Y028494D01*
X040584Y029002D02*
X04145D01*
X040581Y029006D02*
X040584Y029002D01*
X04145D02*
X041486Y028967D01*
Y029321D02*
X041848D01*
X041281D02*
X041486D01*
X041848D02*
X041867Y029301D01*
X041163Y029203D02*
X041281Y029321D01*
X040581Y029203D02*
X041163D01*
D74*
X030434Y028716D02*
Y028949D01*
X030429Y028954D02*
X030434Y028949D01*
X030398Y028679D02*
X030434Y028716D01*
X030116Y032616D02*
X030118Y032618D01*
X029872Y032616D02*
X030116D01*
X029869Y032614D02*
X029872Y032616D01*
X031339Y032618D02*
X031346Y032611D01*
X031572D01*
X031579Y032604D01*
D75*
X02782Y027204D02*
X028176D01*
X028176Y027205D01*
X027819Y027204D02*
X02782Y027204D01*
X026473Y026789D02*
Y027162D01*
X026315Y027754D02*
X026476Y027593D01*
X026122Y027754D02*
X026315D01*
X026476Y027165D02*
Y027593D01*
X026487Y027244D02*
X026487Y027244D01*
X030439Y028134D02*
Y028366D01*
X031339Y03769D02*
X031352Y037704D01*
X028774Y02252D02*
Y022679D01*
X033937Y030571D02*
X034331D01*
X033555D02*
X033937D01*
X033535Y030591D02*
X033555Y030571D01*
X031339Y037379D02*
Y03769D01*
X031232Y037273D02*
X031339Y037379D01*
X031352Y037704D02*
X031358D01*
X026901Y03614D02*
X026902Y036142D01*
X026901Y035865D02*
Y03614D01*
X026899Y035864D02*
X026901Y035865D01*
X03012Y033224D02*
X030121Y033225D01*
X030118Y032972D02*
X03012Y032974D01*
Y033224D01*
X04294Y031732D02*
Y032163D01*
X031594Y032978D02*
X031599Y032984D01*
X031339Y032972D02*
X031344Y032978D01*
X031594D01*
X025906Y025571D02*
X025917Y025582D01*
X026208D01*
X026219Y025594D01*
X025907Y022616D02*
Y022899D01*
Y022616D02*
X025909Y022614D01*
X025906Y022901D02*
X025907Y022899D01*
X026469Y026785D02*
X026473Y026789D01*
X026474Y026858D02*
X026479Y026864D01*
X025916Y026858D02*
X026474D01*
X025039D02*
X025916D01*
X025906Y026848D02*
X025916Y026858D01*
X025906Y026351D02*
Y026848D01*
X026473Y027162D02*
X026476Y027165D01*
X026902Y036745D02*
Y037126D01*
X034811Y030592D02*
Y030922D01*
X034809Y030924D02*
X034811Y030922D01*
X033169Y030197D02*
Y030579D01*
X033157Y030591D02*
X033169Y030579D01*
X028799Y022254D02*
Y02252D01*
X028799Y02252D02*
X028799Y02252D01*
Y022254D02*
X028799Y022254D01*
X028398Y02252D02*
X028774D01*
X028541Y022912D02*
X028774Y022679D01*
X028519Y022912D02*
X028541D01*
X028506Y022925D02*
Y023083D01*
Y022925D02*
X028519Y022912D01*
X027824Y026688D02*
X028172D01*
X027819Y026684D02*
X027824Y026688D01*
X028172D02*
X028176Y026693D01*
X031737Y028302D02*
X031762Y028278D01*
X031713Y028701D02*
X031737Y028676D01*
Y028302D02*
Y028676D01*
X034803Y0306D02*
X034811Y030592D01*
X034813Y030591D01*
X034341Y0306D02*
X034803D01*
X030945Y037704D02*
X031339D01*
X041053Y031093D02*
X041063Y031083D01*
X04139D01*
X040699Y031093D02*
X041053D01*
X04139Y031083D02*
X041399Y031074D01*
X031372Y03767D02*
Y03769D01*
X031358Y037704D02*
X031372Y03769D01*
X037573Y028103D02*
X037576Y028106D01*
Y028356D01*
Y028711D02*
Y029065D01*
Y028356D02*
Y028711D01*
X044343Y029528D02*
X045472D01*
X025248Y023858D02*
X025379Y023989D01*
X025039Y023858D02*
X025248D01*
X025379Y023989D02*
X025906D01*
Y024429D01*
X025248Y025858D02*
X025401Y026011D01*
X025039Y025858D02*
X025248D01*
X025401Y026011D02*
X025906D01*
Y025571D02*
Y026011D01*
X030945Y037704D02*
X030945Y037704D01*
D76*
X038768Y036684D02*
X0409D01*
X038768D02*
Y036692D01*
Y036235D02*
Y036684D01*
X03825D02*
X038768D01*
X031229Y034914D02*
X036479D01*
X027949D02*
X031229D01*
X038759Y035284D02*
X038763Y035287D01*
Y035547D01*
X038767Y035551D01*
Y036234D02*
X038768Y036235D01*
Y036692D02*
X038769Y036694D01*
X036479Y034914D02*
X03825Y036684D01*
X040433Y03872D02*
X041123D01*
X041349Y038494D01*
X0409Y036684D02*
X041349Y037134D01*
Y038494D01*
X027609Y035254D02*
X027949Y034914D01*
X027609Y035254D02*
Y037394D01*
X030945Y038044D02*
Y038452D01*
X031339Y038044D02*
Y038452D01*
X029029Y032724D02*
X029035Y032718D01*
Y032481D02*
X029035Y03248D01*
X029035Y032481D02*
Y032718D01*
X040684Y031769D02*
X040689Y031764D01*
X029035Y032126D02*
Y03248D01*
X032579Y027954D02*
Y028189D01*
X032579Y028189D02*
X032579Y028189D01*
Y027954D02*
X032589Y027943D01*
Y027934D02*
Y027943D01*
X032579Y028543D02*
Y028898D01*
Y028189D02*
Y028543D01*
X033405Y029822D02*
X033465D01*
X033386Y029804D02*
X033405Y029822D01*
X033465Y029804D02*
X033866D01*
X032819D02*
X033386D01*
X034606Y029173D02*
X034665Y029232D01*
Y029803D01*
X034606Y028937D02*
Y029173D01*
X034244Y029803D02*
X034665D01*
X033866Y029804D02*
X033866Y029803D01*
X03935Y026919D02*
Y027204D01*
X039331Y0269D02*
X03935Y026919D01*
X039331Y02689D02*
Y0269D01*
X03935Y027204D02*
X03935Y027205D01*
X040689Y031764D02*
X040698Y031755D01*
Y031447D02*
X040699Y031447D01*
X040698Y031447D02*
Y031755D01*
X042129Y030274D02*
Y030944D01*
X041626Y031447D02*
X042129Y030944D01*
X041053Y031447D02*
X041626D01*
X040699D02*
X041053D01*
X045465Y028535D02*
X045472Y028528D01*
X044343Y028543D02*
X044351Y028535D01*
X045465D01*
X025039Y034134D02*
X026562D01*
X025039Y03315D02*
X026562D01*
X025039Y035157D02*
X026562D01*
X025039Y036142D02*
X026562D01*
X025039Y037126D02*
X026562D01*
X025039Y03815D02*
X026562D01*
X044343Y031732D02*
X045472D01*
X044343Y032756D02*
X045472D01*
X044343Y03378D02*
X045472D01*
X044343Y034803D02*
X045472D01*
X044343Y035787D02*
X045472D01*
X044343Y036772D02*
X045472D01*
X044343Y037795D02*
X045472D01*
D77*
X029626Y035913D02*
X02966Y035948D01*
Y035843D02*
X032772D01*
X036519Y036854D02*
Y039214D01*
X03748Y040174D02*
Y040748D01*
X036519Y039214D02*
X03748Y040174D01*
X035697Y036031D02*
X036519Y036854D01*
X035433Y035866D02*
X035598Y036031D01*
X035697D01*
X032772Y035843D02*
X032795Y035866D01*
X02966Y035948D02*
X029943D01*
X029618Y035906D02*
X029642Y035882D01*
X032795Y035866D02*
X035433D01*
X034689Y039884D02*
X03548Y040674D01*
X028783Y039884D02*
X034689D01*
X028346Y040315D02*
X028351D01*
X028391Y040276D02*
X028391D01*
X028783Y039884D01*
X028351Y040315D02*
X028391Y040276D01*
X03548Y040674D02*
Y040748D01*
X025039Y040315D02*
X027795D01*
D78*
X043492Y039255D02*
Y040736D01*
X04348Y040748D02*
X043492Y040736D01*
X043495Y039252D02*
X043504D01*
X043492Y039255D02*
X043495Y039252D01*
D79*
X040433Y03872D02*
D03*
X025039Y032008D02*
D03*
Y028858D02*
D03*
X045472Y029528D02*
D03*
Y037795D02*
D03*
X035433Y035866D02*
D03*
X025039Y03815D02*
D03*
Y040315D02*
D03*
X032795Y035866D02*
D03*
D80*
X040433Y037736D02*
D03*
X025039Y030008D02*
D03*
Y031008D02*
D03*
Y023858D02*
D03*
Y024858D02*
D03*
Y025858D02*
D03*
Y026858D02*
D03*
Y027858D02*
D03*
X045472Y028528D02*
D03*
Y030795D02*
D03*
Y031795D02*
D03*
Y032795D02*
D03*
Y033795D02*
D03*
Y034795D02*
D03*
Y035795D02*
D03*
Y036795D02*
D03*
X035433Y03685D02*
D03*
X025039Y03715D02*
D03*
Y03615D02*
D03*
Y03515D02*
D03*
Y03415D02*
D03*
Y03315D02*
D03*
Y039315D02*
D03*
X032795Y03685D02*
D03*
D81*
X03248Y040748D02*
D03*
D82*
X03348D02*
D03*
X03448D02*
D03*
X03548D02*
D03*
X03648D02*
D03*
X03748D02*
D03*
X03848D02*
D03*
X03948D02*
D03*
X04048D02*
D03*
X04148D02*
D03*
X04248D02*
D03*
X04348D02*
D03*
D83*
X037795Y038583D02*
D03*
X044094Y024409D02*
D03*
X03189D02*
D03*
D84*
X035433Y038583D02*
D03*
X044094Y022638D02*
D03*
X03189D02*
D03*
D85*
X029179Y023084D02*
D03*
X027819Y027204D02*
D03*
X026789Y029254D02*
D03*
X030149Y027124D02*
D03*
X030439Y028134D02*
D03*
X030429Y028954D02*
D03*
X027529Y032274D02*
D03*
Y031977D02*
D03*
X030279Y040334D02*
D03*
X028909Y040664D02*
D03*
X028919Y041104D02*
D03*
X029279Y040344D02*
D03*
X041209Y039364D02*
D03*
X040649Y040034D02*
D03*
X039809Y039954D02*
D03*
X038839Y038744D02*
D03*
X038779Y039404D02*
D03*
X038259Y039794D02*
D03*
X027239Y029664D02*
D03*
X026309Y029714D02*
D03*
X027289Y027094D02*
D03*
X026929Y027124D02*
D03*
X028189Y021894D02*
D03*
X027049D02*
D03*
X029119Y024104D02*
D03*
X029129Y024964D02*
D03*
X044331Y03063D02*
D03*
X044016Y031063D02*
D03*
X044744Y030849D02*
D03*
X041654Y035945D02*
D03*
X040591Y035157D02*
D03*
X039213Y034764D02*
D03*
X038583D02*
D03*
X037953D02*
D03*
X036496Y03185D02*
D03*
X036969Y032323D02*
D03*
X037756Y032756D02*
D03*
X038819D02*
D03*
X029803Y035236D02*
D03*
X033386Y035276D02*
D03*
X034685D02*
D03*
X036535Y035512D02*
D03*
X037283Y03622D02*
D03*
X038268Y037362D02*
D03*
X03778Y037351D02*
D03*
X03437Y03685D02*
D03*
X033898D02*
D03*
X029134Y033819D02*
D03*
X028701Y03378D02*
D03*
X027165Y033543D02*
D03*
X026614Y033583D02*
D03*
X032047Y038031D02*
D03*
X032087Y038425D02*
D03*
X031459Y040344D02*
D03*
X031449Y041094D02*
D03*
X02811Y038543D02*
D03*
X027205Y038819D02*
D03*
X026535Y039055D02*
D03*
X030669Y036693D02*
D03*
Y037205D02*
D03*
X028425Y035276D02*
D03*
X028071Y035866D02*
D03*
Y036535D02*
D03*
X035118Y034567D02*
D03*
X03374Y034528D02*
D03*
X032717Y034449D02*
D03*
X035709Y033386D02*
D03*
X034961Y033425D02*
D03*
X034173D02*
D03*
X030787Y031654D02*
D03*
X030551Y029764D02*
D03*
X030157Y029921D02*
D03*
X035591Y030079D02*
D03*
X035709Y030591D02*
D03*
X035118Y030197D02*
D03*
X034646D02*
D03*
X03374Y030236D02*
D03*
X034134D02*
D03*
X035591Y028898D02*
D03*
X035039Y029055D02*
D03*
Y029488D02*
D03*
X035669Y02815D02*
D03*
X034843D02*
D03*
X034449D02*
D03*
X033622D02*
D03*
Y028543D02*
D03*
X034213Y029055D02*
D03*
Y029409D02*
D03*
X033819D02*
D03*
X032953Y029173D02*
D03*
Y029449D02*
D03*
X032205Y027638D02*
D03*
X031063Y027402D02*
D03*
X02563Y022087D02*
D03*
X025079Y022559D02*
D03*
Y022992D02*
D03*
X026299Y02315D02*
D03*
X026457Y022677D02*
D03*
X029213Y02189D02*
D03*
Y022205D02*
D03*
X026378Y024291D02*
D03*
Y024685D02*
D03*
Y025118D02*
D03*
X026654Y026181D02*
D03*
X026339D02*
D03*
X028289Y029084D02*
D03*
X025787Y027244D02*
D03*
X025512Y027362D02*
D03*
X026969Y030157D02*
D03*
X027559Y030748D02*
D03*
X02811Y032559D02*
D03*
X028307Y032874D02*
D03*
X027598D02*
D03*
X02689Y032244D02*
D03*
X026378Y032087D02*
D03*
X025827D02*
D03*
X02685Y031102D02*
D03*
X026339Y030945D02*
D03*
X025787Y030984D02*
D03*
X027441Y028307D02*
D03*
X027126D02*
D03*
X02878Y029803D02*
D03*
X031229Y034914D02*
D03*
X031232Y037273D02*
D03*
X038759Y035284D02*
D03*
X038769Y036694D02*
D03*
X033569Y033444D02*
D03*
X027609Y037674D02*
D03*
Y037394D02*
D03*
X026899Y035864D02*
D03*
X031619Y038044D02*
D03*
X030679Y038034D02*
D03*
X030229Y038424D02*
D03*
X039729Y032744D02*
D03*
X040659Y032604D02*
D03*
X040669Y034464D02*
D03*
X030121Y033225D02*
D03*
X041029Y032824D02*
D03*
X041009Y034774D02*
D03*
X032579Y033864D02*
D03*
X032349Y034134D02*
D03*
X032089Y034344D02*
D03*
X031839Y034564D02*
D03*
X031599Y032984D02*
D03*
X030839Y027728D02*
D03*
X030811Y028074D02*
D03*
X027686Y02854D02*
D03*
X029109Y025624D02*
D03*
X026219Y025594D02*
D03*
Y023654D02*
D03*
X025909Y022614D02*
D03*
X026469Y026785D02*
D03*
X030469Y032444D02*
D03*
X030309Y031704D02*
D03*
X034389Y031614D02*
D03*
X026902Y036745D02*
D03*
X029029Y032724D02*
D03*
X029869Y032614D02*
D03*
X031579Y032604D02*
D03*
X035449Y031364D02*
D03*
X035289Y031674D02*
D03*
X035009Y031904D02*
D03*
X040689Y031764D02*
D03*
X041203Y029654D02*
D03*
X040629Y030049D02*
D03*
X041193Y030278D02*
D03*
X041213Y029973D02*
D03*
X034809Y030924D02*
D03*
X032089Y031104D02*
D03*
X032109Y030314D02*
D03*
X028799Y022254D02*
D03*
X026709Y023084D02*
D03*
X028509Y025724D02*
D03*
X028009Y025634D02*
D03*
X027819Y026684D02*
D03*
X029429Y030354D02*
D03*
X030099Y030484D02*
D03*
X027949Y029974D02*
D03*
X028199Y029724D02*
D03*
X028189Y031194D02*
D03*
X027939Y031414D02*
D03*
X032279Y029084D02*
D03*
X032589Y027934D02*
D03*
X039331Y02689D02*
D03*
X041399Y031074D02*
D03*
X04294Y032163D02*
D03*
X042129Y030274D02*
D03*
X041146Y026154D02*
D03*
X040359D02*
D03*
X039571D02*
D03*
X038784D02*
D03*
X037996D02*
D03*
X037209D02*
D03*
X036422D02*
D03*
X035634D02*
D03*
X034847D02*
D03*
X034059D02*
D03*
X039537Y030619D02*
D03*
X037573Y028103D02*
D03*
X029943Y035948D02*
D03*
X042677Y037795D02*
D03*
Y036772D02*
D03*
Y035787D02*
D03*
Y034803D02*
D03*
Y03378D02*
D03*
Y032756D02*
D03*
X028703Y037828D02*
D03*
X029737Y038124D02*
D03*
X031732Y039071D02*
D03*
X031339Y039053D02*
D03*
X030949Y039054D02*
D03*
M02*
