M48
;Layer_Color=9474304
;FILE_FORMAT=2:4
INCH,LZ
;TYPE=PLATED
T1F00S00C0.0118
T2F00S00C0.0315
T3F00S00C0.0394
;TYPE=NON_PLATED
T4F00S00C0.0787
T5F00S00C0.1181
%
T01
X032205Y027638
X032589Y027934
X033622Y02815
Y028543
X033819Y029409
X034213
Y029055
X035039
Y029488
X035118Y030197
X034646
X034134Y030236
X03374
X032953Y029449
Y029173
X032279Y029084
X032109Y030314
X032089Y031104
X034809Y030924
X035709Y030591
X035591Y030079
Y028898
X035669Y02815
X034843
X034449
X034059Y026154
X034847
X035634
X036422
X037209
X037996
X038784
X039571
X040359
X041146
X039331Y02689
X037573Y028103
X039537Y030619
X040629Y030049
X041213Y029973
X041193Y030278
X041203Y029654
X042129Y030274
X041399Y031074
X044016Y031063
X044331Y03063
X044744Y030849
X030099Y030484
X030157Y029921
X030551Y029764
X030429Y028954
X030439Y028134
X030811Y028074
X030839Y027728
X031063Y027402
X030149Y027124
X027819Y027204
Y026684
X027289Y027094
X026929Y027124
X026469Y026785
X026339Y026181
X026654
X026219Y025594
X026378Y025118
Y024685
Y024291
X026219Y023654
X026299Y02315
X026709Y023084
X026457Y022677
X025909Y022614
X02563Y022087
X025079Y022559
Y022992
X027049Y021894
X028189
X028799Y022254
X029213Y022205
Y02189
X029179Y023084
X029119Y024104
X029129Y024964
X029109Y025624
X028509Y025724
X028009Y025634
X027686Y02854
X027441Y028307
X027126
X026789Y029254
X027239Y029664
X026969Y030157
X02685Y031102
X026339Y030945
X025787Y030984
X026309Y029714
X027949Y029974
X028199Y029724
X02878Y029803
X029429Y030354
X028189Y031194
X027559Y030748
X028289Y029084
X025787Y027244
X025512Y027362
X025827Y032087
X026378
X02689Y032244
X027529Y032274
Y031977
X027598Y032874
X028307
X02811Y032559
X029029Y032724
X029869Y032614
X030469Y032444
X030309Y031704
X030787Y031654
X030121Y033225
X029134Y033819
X028701Y03378
X027165Y033543
X026614Y033583
X026899Y035864
X026902Y036745
X027609Y037394
Y037674
X028703Y037828
X02811Y038543
X027205Y038819
X026535Y039055
X028909Y040664
X028919Y041104
X029279Y040344
X030279Y040334
X030949Y039054
X030679Y038034
X030669Y037205
Y036693
X031232Y037273
X030229Y038424
X029737Y038124
X029943Y035948
X029803Y035236
X028425Y035276
X028071Y035866
Y036535
X031229Y034914
X027939Y031414
X031579Y032604
X031599Y032984
X031839Y034564
X032089Y034344
X032349Y034134
X032579Y033864
X032717Y034449
X03374Y034528
X033386Y035276
X034685
X035118Y034567
X034961Y033425
X034173
X033569Y033444
X035709Y033386
X035289Y031674
X035449Y031364
X035009Y031904
X034389Y031614
X036496Y03185
X036969Y032323
X037756Y032756
X038819
X039729Y032744
X040659Y032604
X041029Y032824
X040689Y031764
X04294Y032163
X042677Y032756
Y03378
Y034803
Y035787
Y036772
Y037795
X041654Y035945
X041009Y034774
X040669Y034464
X040591Y035157
X039213Y034764
X038583
X037953
X038759Y035284
X038769Y036694
X038268Y037362
X03778Y037351
X037283Y03622
X036535Y035512
X03437Y03685
X033898
X032047Y038031
X032087Y038425
X031619Y038044
X031732Y039071
X031339Y039053
X031459Y040344
X031449Y041094
X038259Y039794
X038779Y039404
X038839Y038744
X039809Y039954
X040649Y040034
X041209Y039364
T02
X032795Y035866
Y03685
X035433
Y035866
X040433Y037736
Y03872
T03
X045472Y028528
Y029528
Y030795
X025039Y031008
Y030008
Y028858
Y027858
Y026858
Y025858
Y024858
Y023858
Y032008
Y03315
Y03415
Y03515
Y03615
Y03715
Y03815
Y039315
Y040315
X03248Y040748
X03348
X03448
X03548
X03648
X03748
X03848
X03948
X04048
X04148
X04248
X04348
X045472Y037795
Y036795
Y035795
Y034795
Y033795
Y032795
Y031795
T04
X03189Y022638
X044094
X035433Y038583
T05
X03189Y024409
X044094
X037795Y038583
M30
