G04*
G04 #@! TF.GenerationSoftware,Altium Limited,Altium Designer,21.0.9 (235)*
G04*
G04 Layer_Color=128*
%FSTAX24Y24*%
%MOIN*%
G70*
G04*
G04 #@! TF.SameCoordinates,2BB606B7-502A-413E-8362-7AFD42C930D0*
G04*
G04*
G04 #@! TF.FilePolarity,Positive*
G04*
G01*
G75*
%ADD51C,0.0020*%
D51*
X048445Y033268D02*
X048799D01*
X048622Y033091D02*
Y033445D01*
X047445Y033268D02*
X047799D01*
X047622Y033091D02*
Y033445D01*
X046445Y033268D02*
X046799D01*
X046622Y033091D02*
Y033445D01*
X045445Y033268D02*
X045799D01*
X045622Y033091D02*
Y033445D01*
X044445Y033268D02*
X044799D01*
X044622Y033091D02*
Y033445D01*
X043445Y033268D02*
X043799D01*
X043622Y033091D02*
Y033445D01*
X036713Y032776D02*
X038091D01*
X037402Y032087D02*
Y033465D01*
X047047Y026772D02*
X047835D01*
X047441Y026378D02*
Y027165D01*
X04685Y028543D02*
X048032D01*
X047441Y027953D02*
Y029134D01*
X034449Y028543D02*
X03563D01*
X035039Y027953D02*
Y029134D01*
X034646Y026772D02*
X035433D01*
X035039Y026378D02*
Y027165D01*
X039676Y033071D02*
X039794D01*
X039735Y033012D02*
Y03313D01*
X040036Y032621D02*
X040154D01*
X040095Y032562D02*
Y03268D01*
X035374Y03189D02*
X035492D01*
X035433Y031831D02*
Y031949D01*
X034587Y03189D02*
X034705D01*
X034646Y031831D02*
Y031949D01*
X035374Y033071D02*
X035492D01*
X035433Y033012D02*
Y03313D01*
X034587Y033071D02*
X034705D01*
X034646Y033012D02*
Y03313D01*
X035374Y03248D02*
X035492D01*
X035433Y032421D02*
Y032539D01*
X034587Y03248D02*
X034705D01*
X034646Y032421D02*
Y032539D01*
X039311Y03248D02*
X039429D01*
X03937Y032421D02*
Y032539D01*
X042067Y033071D02*
X042185D01*
X042126Y033012D02*
Y03313D01*
X04128Y033071D02*
X041398D01*
X041339Y033012D02*
Y03313D01*
X040492Y033071D02*
X04061D01*
X040551Y033012D02*
Y03313D01*
X042461Y033465D02*
X042579D01*
X04252Y033406D02*
Y033524D01*
X041673Y033465D02*
X041791D01*
X041732Y033406D02*
Y033524D01*
X040886Y033465D02*
X041004D01*
X040945Y033406D02*
Y033524D01*
X040098Y033465D02*
X040217D01*
X040157Y033406D02*
Y033524D01*
X039311Y033465D02*
X039429D01*
X03937Y033406D02*
Y033524D01*
X04561Y031693D02*
X045728D01*
X045669Y031634D02*
Y031752D01*
X045807Y032087D02*
X045925D01*
X045866Y032028D02*
Y032146D01*
X045217Y032087D02*
X045335D01*
X045276Y032028D02*
Y032146D01*
X047776Y031496D02*
X047894D01*
X047835Y031437D02*
Y031555D01*
X046594Y031496D02*
X046713D01*
X046654Y031437D02*
Y031555D01*
X04876Y031693D02*
X048878D01*
X048819Y031634D02*
Y031752D01*
X048366Y032087D02*
X048484D01*
X048425Y032028D02*
Y032146D01*
X047382Y032087D02*
X0475D01*
X047441Y032028D02*
Y032146D01*
X04876Y030906D02*
X048878D01*
X048819Y030846D02*
Y030965D01*
X04876Y029921D02*
X048878D01*
X048819Y029862D02*
Y02998D01*
X04876Y028937D02*
X048878D01*
X048819Y028878D02*
Y028996D01*
X04876Y027953D02*
X048878D01*
X048819Y027894D02*
Y028012D01*
X04876Y026969D02*
X048878D01*
X048819Y026909D02*
Y027028D01*
X04876Y025984D02*
X048878D01*
X048819Y025925D02*
Y026043D01*
X033602Y025787D02*
X03372D01*
X033661Y025728D02*
Y025846D01*
X033602Y026575D02*
X03372D01*
X033661Y026516D02*
Y026634D01*
X033602Y027559D02*
X03372D01*
X033661Y0275D02*
Y027618D01*
X033602Y028543D02*
X03372D01*
X033661Y028484D02*
Y028602D01*
X033602Y029528D02*
X03372D01*
X033661Y029469D02*
Y029587D01*
X033602Y030512D02*
X03372D01*
X033661Y030453D02*
Y030571D01*
X033799Y03189D02*
X033917D01*
X033858Y031831D02*
Y031949D01*
X033799Y03248D02*
X033917D01*
X033858Y032421D02*
Y032539D01*
X033799Y033071D02*
X033917D01*
X033858Y033012D02*
Y03313D01*
X040413Y031535D02*
X040532D01*
X040472Y031476D02*
Y031594D01*
X041122Y031417D02*
X04124D01*
X041181Y031358D02*
Y031476D01*
X040886Y031654D02*
X041004D01*
X040945Y031594D02*
Y031713D01*
X039675Y031309D02*
X039793D01*
X039734Y03125D02*
Y031368D01*
X040029Y031624D02*
X040147D01*
X040088Y031565D02*
Y031683D01*
X040676Y031091D02*
X040794D01*
X040735Y031031D02*
Y03115D01*
X045217Y026969D02*
X045335D01*
X045276Y026909D02*
Y027028D01*
X044232Y026969D02*
X04435D01*
X044291Y026909D02*
Y027028D01*
X043445Y026969D02*
X043563D01*
X043504Y026909D02*
Y027028D01*
X042657Y026969D02*
X042776D01*
X042717Y026909D02*
Y027028D01*
X04187Y026969D02*
X041988D01*
X041929Y026909D02*
Y027028D01*
X041083Y026969D02*
X041201D01*
X041142Y026909D02*
Y027028D01*
X040295Y026969D02*
X040413D01*
X040354Y026909D02*
Y027028D01*
X039508Y026969D02*
X039626D01*
X039567Y026909D02*
Y027028D01*
X03872Y026969D02*
X038839D01*
X03878Y026909D02*
Y027028D01*
X037933Y026969D02*
X038051D01*
X037992Y026909D02*
Y027028D01*
X037146Y026969D02*
X037264D01*
X037205Y026909D02*
Y027028D01*
M02*
