G04*
G04 #@! TF.GenerationSoftware,Altium Limited,Altium Designer,21.0.9 (235)*
G04*
G04 Layer_Color=2752767*
%FSTAX24Y24*%
%MOIN*%
G70*
G04*
G04 #@! TF.SameCoordinates,2BB606B7-502A-413E-8362-7AFD42C930D0*
G04*
G04*
G04 #@! TF.FilePolarity,Positive*
G04*
G01*
G75*
%ADD51C,0.0020*%
%ADD52C,0.0027*%
D51*
X048542Y033188D02*
Y033348D01*
X048702D01*
Y033188D01*
X048542D01*
X047542D02*
Y033348D01*
X047702D01*
Y033188D01*
X047542D01*
X046542D02*
Y033348D01*
X046702D01*
Y033188D01*
X046542D01*
X045542D02*
Y033348D01*
X045702D01*
Y033188D01*
X045542D01*
X044542D02*
Y033348D01*
X044702D01*
Y033188D01*
X044542D01*
X043542D02*
Y033348D01*
X043702D01*
Y033188D01*
X043542D01*
X047441Y026692D02*
X047361Y026852D01*
X047521D01*
X047441Y026692D01*
Y028463D02*
X047481Y028503D01*
X047521D01*
X047481Y028543D01*
X047521Y028583D01*
X047481D01*
X047441Y028623D01*
X047401Y028583D01*
X047361D01*
X047401Y028543D01*
X047361Y028503D01*
X047401D01*
X047441Y028463D01*
X035039D02*
X035079Y028503D01*
X035119D01*
X035079Y028543D01*
X035119Y028583D01*
X035079D01*
X035039Y028623D01*
X034999Y028583D01*
X034959D01*
X034999Y028543D01*
X034959Y028503D01*
X034999D01*
X035039Y028463D01*
Y026692D02*
X034959Y026852D01*
X035119D01*
X035039Y026692D01*
X039655Y032991D02*
X039695Y033071D01*
X039655Y033151D01*
X039735Y033111D01*
X039815Y033151D01*
X039775Y033071D01*
X039815Y032991D01*
X039735Y033031D01*
X039655Y032991D01*
X040015Y032541D02*
X040055Y032621D01*
X040015Y032701D01*
X040095Y032661D01*
X040175Y032701D01*
X040135Y032621D01*
X040175Y032541D01*
X040095Y032581D01*
X040015Y032541D01*
X035353Y03181D02*
X035393Y03189D01*
X035353Y03197D01*
X035433Y03193D01*
X035513Y03197D01*
X035473Y03189D01*
X035513Y03181D01*
X035433Y03185D01*
X035353Y03181D01*
X034566D02*
X034606Y03189D01*
X034566Y03197D01*
X034646Y03193D01*
X034726Y03197D01*
X034686Y03189D01*
X034726Y03181D01*
X034646Y03185D01*
X034566Y03181D01*
X035353Y032991D02*
X035393Y033071D01*
X035353Y033151D01*
X035433Y033111D01*
X035513Y033151D01*
X035473Y033071D01*
X035513Y032991D01*
X035433Y033031D01*
X035353Y032991D01*
X034566D02*
X034606Y033071D01*
X034566Y033151D01*
X034646Y033111D01*
X034726Y033151D01*
X034686Y033071D01*
X034726Y032991D01*
X034646Y033031D01*
X034566Y032991D01*
X035353Y0324D02*
X035393Y03248D01*
X035353Y03256D01*
X035433Y03252D01*
X035513Y03256D01*
X035473Y03248D01*
X035513Y0324D01*
X035433Y03244D01*
X035353Y0324D01*
X034566D02*
X034606Y03248D01*
X034566Y03256D01*
X034646Y03252D01*
X034726Y03256D01*
X034686Y03248D01*
X034726Y0324D01*
X034646Y03244D01*
X034566Y0324D01*
X03929D02*
X03933Y03248D01*
X03929Y03256D01*
X03937Y03252D01*
X03945Y03256D01*
X03941Y03248D01*
X03945Y0324D01*
X03937Y03244D01*
X03929Y0324D01*
X042046Y032991D02*
X042086Y033071D01*
X042046Y033151D01*
X042126Y033111D01*
X042206Y033151D01*
X042166Y033071D01*
X042206Y032991D01*
X042126Y033031D01*
X042046Y032991D01*
X041259D02*
X041299Y033071D01*
X041259Y033151D01*
X041339Y033111D01*
X041419Y033151D01*
X041379Y033071D01*
X041419Y032991D01*
X041339Y033031D01*
X041259Y032991D01*
X040471D02*
X040511Y033071D01*
X040471Y033151D01*
X040551Y033111D01*
X040631Y033151D01*
X040591Y033071D01*
X040631Y032991D01*
X040551Y033031D01*
X040471Y032991D01*
X04244Y033385D02*
X04248Y033465D01*
X04244Y033545D01*
X04252Y033505D01*
X0426Y033545D01*
X04256Y033465D01*
X0426Y033385D01*
X04252Y033425D01*
X04244Y033385D01*
X041652D02*
X041692Y033465D01*
X041652Y033545D01*
X041732Y033505D01*
X041812Y033545D01*
X041772Y033465D01*
X041812Y033385D01*
X041732Y033425D01*
X041652Y033385D01*
X040865D02*
X040905Y033465D01*
X040865Y033545D01*
X040945Y033505D01*
X041025Y033545D01*
X040985Y033465D01*
X041025Y033385D01*
X040945Y033425D01*
X040865Y033385D01*
X040077D02*
X040117Y033465D01*
X040077Y033545D01*
X040157Y033505D01*
X040237Y033545D01*
X040197Y033465D01*
X040237Y033385D01*
X040157Y033425D01*
X040077Y033385D01*
X03929D02*
X03933Y033465D01*
X03929Y033545D01*
X03937Y033505D01*
X03945Y033545D01*
X03941Y033465D01*
X03945Y033385D01*
X03937Y033425D01*
X03929Y033385D01*
X045589Y031613D02*
X045629Y031693D01*
X045589Y031773D01*
X045669Y031733D01*
X045749Y031773D01*
X045709Y031693D01*
X045749Y031613D01*
X045669Y031653D01*
X045589Y031613D01*
X045786Y032007D02*
X045826Y032087D01*
X045786Y032167D01*
X045866Y032127D01*
X045946Y032167D01*
X045906Y032087D01*
X045946Y032007D01*
X045866Y032047D01*
X045786Y032007D01*
X045196D02*
X045236Y032087D01*
X045196Y032167D01*
X045276Y032127D01*
X045356Y032167D01*
X045316Y032087D01*
X045356Y032007D01*
X045276Y032047D01*
X045196Y032007D01*
X047755Y031416D02*
X047795Y031496D01*
X047755Y031576D01*
X047835Y031536D01*
X047915Y031576D01*
X047875Y031496D01*
X047915Y031416D01*
X047835Y031456D01*
X047755Y031416D01*
X046574D02*
X046614Y031496D01*
X046574Y031576D01*
X046654Y031536D01*
X046734Y031576D01*
X046694Y031496D01*
X046734Y031416D01*
X046654Y031456D01*
X046574Y031416D01*
X048739Y031613D02*
X048779Y031693D01*
X048739Y031773D01*
X048819Y031733D01*
X048899Y031773D01*
X048859Y031693D01*
X048899Y031613D01*
X048819Y031653D01*
X048739Y031613D01*
X048345Y032007D02*
X048385Y032087D01*
X048345Y032167D01*
X048425Y032127D01*
X048505Y032167D01*
X048465Y032087D01*
X048505Y032007D01*
X048425Y032047D01*
X048345Y032007D01*
X047361D02*
X047401Y032087D01*
X047361Y032167D01*
X047441Y032127D01*
X047521Y032167D01*
X047481Y032087D01*
X047521Y032007D01*
X047441Y032047D01*
X047361Y032007D01*
X048739Y030826D02*
X048779Y030906D01*
X048739Y030986D01*
X048819Y030946D01*
X048899Y030986D01*
X048859Y030906D01*
X048899Y030826D01*
X048819Y030866D01*
X048739Y030826D01*
Y029841D02*
X048779Y029921D01*
X048739Y030001D01*
X048819Y029961D01*
X048899Y030001D01*
X048859Y029921D01*
X048899Y029841D01*
X048819Y029881D01*
X048739Y029841D01*
Y028857D02*
X048779Y028937D01*
X048739Y029017D01*
X048819Y028977D01*
X048899Y029017D01*
X048859Y028937D01*
X048899Y028857D01*
X048819Y028897D01*
X048739Y028857D01*
Y027873D02*
X048779Y027953D01*
X048739Y028033D01*
X048819Y027993D01*
X048899Y028033D01*
X048859Y027953D01*
X048899Y027873D01*
X048819Y027913D01*
X048739Y027873D01*
Y026888D02*
X048779Y026969D01*
X048739Y027048D01*
X048819Y027009D01*
X048899Y027048D01*
X048859Y026969D01*
X048899Y026888D01*
X048819Y026929D01*
X048739Y026888D01*
Y025904D02*
X048779Y025984D01*
X048739Y026064D01*
X048819Y026024D01*
X048899Y026064D01*
X048859Y025984D01*
X048899Y025904D01*
X048819Y025944D01*
X048739Y025904D01*
X033581Y025707D02*
X033621Y025787D01*
X033581Y025867D01*
X033661Y025827D01*
X033741Y025867D01*
X033701Y025787D01*
X033741Y025707D01*
X033661Y025747D01*
X033581Y025707D01*
Y026495D02*
X033621Y026575D01*
X033581Y026655D01*
X033661Y026615D01*
X033741Y026655D01*
X033701Y026575D01*
X033741Y026495D01*
X033661Y026535D01*
X033581Y026495D01*
Y027479D02*
X033621Y027559D01*
X033581Y027639D01*
X033661Y027599D01*
X033741Y027639D01*
X033701Y027559D01*
X033741Y027479D01*
X033661Y027519D01*
X033581Y027479D01*
Y028463D02*
X033621Y028543D01*
X033581Y028623D01*
X033661Y028583D01*
X033741Y028623D01*
X033701Y028543D01*
X033741Y028463D01*
X033661Y028503D01*
X033581Y028463D01*
Y029448D02*
X033621Y029528D01*
X033581Y029608D01*
X033661Y029568D01*
X033741Y029608D01*
X033701Y029528D01*
X033741Y029448D01*
X033661Y029488D01*
X033581Y029448D01*
Y030432D02*
X033621Y030512D01*
X033581Y030592D01*
X033661Y030552D01*
X033741Y030592D01*
X033701Y030512D01*
X033741Y030432D01*
X033661Y030472D01*
X033581Y030432D01*
X033778Y03181D02*
X033818Y03189D01*
X033778Y03197D01*
X033858Y03193D01*
X033938Y03197D01*
X033898Y03189D01*
X033938Y03181D01*
X033858Y03185D01*
X033778Y03181D01*
Y0324D02*
X033818Y03248D01*
X033778Y03256D01*
X033858Y03252D01*
X033938Y03256D01*
X033898Y03248D01*
X033938Y0324D01*
X033858Y03244D01*
X033778Y0324D01*
Y032991D02*
X033818Y033071D01*
X033778Y033151D01*
X033858Y033111D01*
X033938Y033151D01*
X033898Y033071D01*
X033938Y032991D01*
X033858Y033031D01*
X033778Y032991D01*
X040392Y031455D02*
X040432Y031535D01*
X040392Y031615D01*
X040472Y031575D01*
X040552Y031615D01*
X040512Y031535D01*
X040552Y031455D01*
X040472Y031495D01*
X040392Y031455D01*
X041101Y031337D02*
X041141Y031417D01*
X041101Y031497D01*
X041181Y031457D01*
X041261Y031497D01*
X041221Y031417D01*
X041261Y031337D01*
X041181Y031377D01*
X041101Y031337D01*
X040865Y031574D02*
X040905Y031654D01*
X040865Y031734D01*
X040945Y031694D01*
X041025Y031734D01*
X040985Y031654D01*
X041025Y031574D01*
X040945Y031614D01*
X040865Y031574D01*
X039654Y031229D02*
X039694Y031309D01*
X039654Y031389D01*
X039734Y031349D01*
X039814Y031389D01*
X039774Y031309D01*
X039814Y031229D01*
X039734Y031269D01*
X039654Y031229D01*
X040008Y031544D02*
X040048Y031624D01*
X040008Y031704D01*
X040088Y031664D01*
X040168Y031704D01*
X040128Y031624D01*
X040168Y031544D01*
X040088Y031584D01*
X040008Y031544D01*
X040655Y031011D02*
X040695Y031091D01*
X040655Y031171D01*
X040735Y031131D01*
X040815Y031171D01*
X040775Y031091D01*
X040815Y031011D01*
X040735Y031051D01*
X040655Y031011D01*
X045196Y026888D02*
X045236Y026969D01*
X045196Y027048D01*
X045276Y027009D01*
X045356Y027048D01*
X045316Y026969D01*
X045356Y026888D01*
X045276Y026929D01*
X045196Y026888D01*
X044211D02*
X044251Y026969D01*
X044211Y027048D01*
X044291Y027009D01*
X044371Y027048D01*
X044331Y026969D01*
X044371Y026888D01*
X044291Y026929D01*
X044211Y026888D01*
X043424D02*
X043464Y026969D01*
X043424Y027048D01*
X043504Y027009D01*
X043584Y027048D01*
X043544Y026969D01*
X043584Y026888D01*
X043504Y026929D01*
X043424Y026888D01*
X042637D02*
X042677Y026969D01*
X042637Y027048D01*
X042717Y027009D01*
X042797Y027048D01*
X042757Y026969D01*
X042797Y026888D01*
X042717Y026929D01*
X042637Y026888D01*
X041849D02*
X041889Y026969D01*
X041849Y027048D01*
X041929Y027009D01*
X042009Y027048D01*
X041969Y026969D01*
X042009Y026888D01*
X041929Y026929D01*
X041849Y026888D01*
X041062Y026889D02*
X041102Y026969D01*
X041062Y027049D01*
X041142Y027009D01*
X041222Y027049D01*
X041182Y026969D01*
X041222Y026889D01*
X041142Y026929D01*
X041062Y026889D01*
X040274Y026888D02*
X040314Y026969D01*
X040274Y027048D01*
X040354Y027009D01*
X040434Y027048D01*
X040394Y026969D01*
X040434Y026888D01*
X040354Y026929D01*
X040274Y026888D01*
X039487Y026889D02*
X039527Y026969D01*
X039487Y027049D01*
X039567Y027009D01*
X039647Y027049D01*
X039607Y026969D01*
X039647Y026889D01*
X039567Y026929D01*
X039487Y026889D01*
X0387Y026888D02*
X03874Y026969D01*
X0387Y027048D01*
X03878Y027009D01*
X03886Y027048D01*
X03882Y026969D01*
X03886Y026888D01*
X03878Y026929D01*
X0387Y026888D01*
X037912D02*
X037952Y026969D01*
X037912Y027048D01*
X037992Y027009D01*
X038072Y027048D01*
X038032Y026969D01*
X038072Y026888D01*
X037992Y026929D01*
X037912Y026888D01*
X037125Y026889D02*
X037165Y026969D01*
X037125Y027049D01*
X037205Y027009D01*
X037285Y027049D01*
X037245Y026969D01*
X037285Y026889D01*
X037205Y026929D01*
X037125Y026889D01*
D52*
X037482Y032776D02*
G03*
X037482Y032776I-00008J0D01*
G01*
M02*
