M48
;Layer_Color=9474304
;FILE_FORMAT=2:4
INCH,LZ
;TYPE=PLATED
T1F00S00C0.0118
T2F00S00C0.0354
;TYPE=NON_PLATED
T3F00S00C0.0787
T4F00S00C0.1181
T5F00S00C0.1378
%
T01
X048819Y025984
Y026969
Y027953
Y028937
Y029921
Y030906
X045276Y026969
X044291
X043504
X042717
X041929
X041142Y026969
X040354Y026969
X039567Y026969
X03878Y026969
X037992
X037205Y026969
X033661Y026575
Y025787
Y027559
Y028543
Y029528
Y030512
X040735Y031091
X040472Y031535
X040088Y031624
X039734Y031309
X03937Y03248
X040095Y032621
X039735Y033071
X03937Y033465
X040157
X040551Y033071
X041339
X042126
X041732Y033465
X04252
X040945
Y031654
X041181Y031417
X045669Y031693
X045866Y032087
X045276
X046654Y031496
X035433Y03189
Y03248
Y033071
X034646
Y03248
Y03189
X033858
Y03248
Y033071
X047441Y032087
X047835Y031496
X048819Y031693
X048425Y032087
T02
X043622Y033268
X044622
X045622
X046622
X047622
X048622
T03
X047441Y026772
X035039
T04
X047441Y028543
X035039
T05
X037402Y032776
M30
