G04*
G04 #@! TF.GenerationSoftware,Altium Limited,Altium Designer,21.0.9 (235)*
G04*
G04 Layer_Color=32896*
%FSTAX24Y24*%
%MOIN*%
G70*
G04*
G04 #@! TF.SameCoordinates,2BB606B7-502A-413E-8362-7AFD42C930D0*
G04*
G04*
G04 #@! TF.FilePolarity,Positive*
G04*
G01*
G75*
G36*
X034208Y031925D02*
X034217Y031924D01*
X034226Y031922D01*
X034234Y031921D01*
X034242Y031918D01*
X034249Y031916D01*
X034256Y031913D01*
X034262Y031911D01*
X034268Y031908D01*
X034272Y031905D01*
X034276Y031903D01*
X034279Y031901D01*
X034282Y031899D01*
X034284Y031897D01*
X034285Y031897D01*
X034285Y031896D01*
X034291Y031891D01*
X034296Y031885D01*
X034301Y031878D01*
X034305Y031871D01*
X034312Y031858D01*
X034316Y031845D01*
X034318Y031839D01*
X034319Y031832D01*
X03432Y031827D01*
X034322Y031823D01*
X034322Y031819D01*
Y031816D01*
X034323Y031815D01*
Y031814D01*
X034274Y031809D01*
X034273Y031822D01*
X034271Y031833D01*
X034268Y031843D01*
X034264Y031851D01*
X03426Y031857D01*
X034257Y031862D01*
X034255Y031865D01*
X034254Y031866D01*
X034245Y031872D01*
X034237Y031877D01*
X034227Y031881D01*
X034219Y031884D01*
X034211Y031885D01*
X034204Y031886D01*
X034202Y031886D01*
X034199D01*
X034187Y031886D01*
X034177Y031884D01*
X034168Y03188D01*
X03416Y031877D01*
X034154Y031873D01*
X03415Y03187D01*
X034147Y031868D01*
X034146Y031867D01*
X034139Y031859D01*
X034134Y031851D01*
X034131Y031844D01*
X034128Y031836D01*
X034127Y03183D01*
X034126Y031824D01*
X034126Y031821D01*
Y03182D01*
Y03182D01*
X034127Y03181D01*
X034129Y031799D01*
X034133Y03179D01*
X034137Y031781D01*
X034141Y031774D01*
X034145Y031768D01*
X034146Y031765D01*
X034147Y031764D01*
X034148Y031763D01*
Y031763D01*
X034153Y031756D01*
X034158Y03175D01*
X034164Y031744D01*
X034171Y031737D01*
X034185Y031724D01*
X034199Y03171D01*
X034206Y031704D01*
X034212Y031699D01*
X034218Y031694D01*
X034223Y031689D01*
X034227Y031686D01*
X03423Y031683D01*
X034233Y031681D01*
X034233Y031681D01*
X034247Y031669D01*
X03426Y031658D01*
X03427Y031648D01*
X034279Y03164D01*
X034286Y031633D01*
X034291Y031628D01*
X034294Y031624D01*
X034295Y031624D01*
Y031623D01*
X034303Y031614D01*
X034309Y031605D01*
X034314Y031596D01*
X034319Y031588D01*
X034322Y031582D01*
X034324Y031577D01*
X034325Y031573D01*
X034326Y031573D01*
Y031572D01*
X034328Y031566D01*
X034329Y031561D01*
X03433Y031555D01*
X034331Y03155D01*
X034332Y031546D01*
Y031542D01*
Y03154D01*
Y031539D01*
X034077D01*
Y031585D01*
X034266D01*
X034259Y031594D01*
X034256Y031598D01*
X034253Y031602D01*
X03425Y031605D01*
X034248Y031608D01*
X034247Y031609D01*
X034246Y03161D01*
X034243Y031613D01*
X03424Y031615D01*
X034232Y031623D01*
X034223Y031631D01*
X034214Y031639D01*
X034205Y031647D01*
X034201Y03165D01*
X034198Y031653D01*
X034195Y031655D01*
X034193Y031657D01*
X034192Y031658D01*
X034191Y031659D01*
X034182Y031667D01*
X034173Y031674D01*
X034166Y031681D01*
X034158Y031687D01*
X034152Y031693D01*
X034146Y031699D01*
X034141Y031704D01*
X034136Y031708D01*
X034132Y031713D01*
X034128Y031716D01*
X034126Y031719D01*
X034123Y031721D01*
X03412Y031725D01*
X034119Y031726D01*
X034111Y031735D01*
X034105Y031744D01*
X034099Y031752D01*
X034095Y031759D01*
X034091Y031765D01*
X034089Y031769D01*
X034088Y031772D01*
X034087Y031773D01*
X034084Y031781D01*
X034082Y03179D01*
X03408Y031797D01*
X034078Y031804D01*
X034078Y03181D01*
X034077Y031815D01*
Y031817D01*
Y031819D01*
X034078Y031827D01*
X034079Y031835D01*
X03408Y031842D01*
X034082Y031849D01*
X034088Y031862D01*
X034093Y031873D01*
X034097Y031878D01*
X0341Y031882D01*
X034102Y031886D01*
X034105Y031889D01*
X034107Y031891D01*
X034108Y031893D01*
X03411Y031894D01*
X03411Y031894D01*
X034116Y0319D01*
X034123Y031905D01*
X03413Y031909D01*
X034137Y031912D01*
X034152Y031917D01*
X034166Y031921D01*
X034172Y031922D01*
X034178Y031923D01*
X034184Y031924D01*
X034188Y031925D01*
X034192Y031925D01*
X034198D01*
X034208Y031925D01*
D02*
G37*
G36*
X034663Y031539D02*
X034612D01*
Y031695D01*
X034514D01*
X0345Y031696D01*
X034486Y031697D01*
X034474Y031699D01*
X034462Y031701D01*
X034452Y031703D01*
X034443Y031706D01*
X034435Y031709D01*
X034428Y031713D01*
X034421Y031715D01*
X034416Y031719D01*
X034411Y031721D01*
X034408Y031724D01*
X034405Y031726D01*
X034404Y031728D01*
X034403Y031729D01*
X034402Y031729D01*
X034396Y031736D01*
X034391Y031743D01*
X034388Y031749D01*
X034384Y031756D01*
X03438Y031764D01*
X034378Y03177D01*
X034374Y031783D01*
X034373Y031789D01*
X034372Y031795D01*
X034371Y0318D01*
X034371Y031804D01*
X03437Y031807D01*
Y03181D01*
Y031811D01*
Y031812D01*
X034371Y031822D01*
X034372Y031832D01*
X034374Y031841D01*
X034376Y031849D01*
X034378Y031856D01*
X03438Y031861D01*
X034381Y031864D01*
X034382Y031865D01*
X034386Y031873D01*
X034392Y03188D01*
X034397Y031887D01*
X034402Y031892D01*
X034406Y031896D01*
X03441Y031899D01*
X034412Y031901D01*
X034413Y031901D01*
X03442Y031906D01*
X034429Y03191D01*
X034436Y031913D01*
X034444Y031916D01*
X03445Y031917D01*
X034455Y031918D01*
X034459Y03192D01*
X03446D01*
X034469Y031921D01*
X034478Y031922D01*
X034488Y031922D01*
X034497Y031923D01*
X034506Y031923D01*
X034663D01*
Y031539D01*
D02*
G37*
%LPC*%
G36*
X034612Y031878D02*
X034502D01*
X034492Y031877D01*
X034484Y031877D01*
X034477Y031876D01*
X034473Y031875D01*
X03447Y031875D01*
X034467Y031874D01*
X034467D01*
X03446Y031871D01*
X034454Y031868D01*
X034448Y031865D01*
X034443Y031861D01*
X03444Y031857D01*
X034437Y031854D01*
X034435Y031852D01*
X034435Y031851D01*
X034431Y031845D01*
X034428Y031838D01*
X034425Y031831D01*
X034424Y031825D01*
X034423Y031819D01*
X034423Y031814D01*
Y031811D01*
Y031811D01*
Y03181D01*
X034424Y031799D01*
X034426Y031789D01*
X034429Y03178D01*
X034433Y031773D01*
X034437Y031767D01*
X03444Y031763D01*
X034443Y03176D01*
X034444Y031759D01*
X034448Y031756D01*
X034453Y031753D01*
X034463Y031749D01*
X034475Y031745D01*
X034486Y031743D01*
X034497Y031742D01*
X034501Y031741D01*
X034505D01*
X034509Y031741D01*
X034612D01*
Y031878D01*
D02*
G37*
%LPD*%
M02*
