G04*
G04 #@! TF.GenerationSoftware,Altium Limited,Altium Designer,21.0.9 (235)*
G04*
G04 Layer_Color=255*
%FSTAX24Y24*%
%MOIN*%
G70*
G04*
G04 #@! TF.SameCoordinates,2BB606B7-502A-413E-8362-7AFD42C930D0*
G04*
G04*
G04 #@! TF.FilePolarity,Positive*
G04*
G01*
G75*
%ADD13R,0.0201X0.0201*%
%ADD14R,0.0177X0.0217*%
%ADD15R,0.0217X0.0177*%
%ADD16R,0.0201X0.0201*%
%ADD17R,0.1378X0.1378*%
%ADD18O,0.0098X0.0354*%
%ADD19O,0.0354X0.0098*%
%ADD20C,0.2756*%
D13*
X041398Y027953D02*
D03*
X041043D02*
D03*
X043406Y02811D02*
D03*
X043051D02*
D03*
X043642Y029488D02*
D03*
X043996D02*
D03*
X042303Y031142D02*
D03*
X042657D02*
D03*
X041555D02*
D03*
X041909D02*
D03*
X040088Y030862D02*
D03*
X039734D02*
D03*
X040088Y030508D02*
D03*
X039734D02*
D03*
D14*
X04105Y02748D02*
D03*
X04139D02*
D03*
X043058Y027717D02*
D03*
X043398D02*
D03*
X044343Y031142D02*
D03*
X044003D02*
D03*
X044343Y029882D02*
D03*
X044003D02*
D03*
X039436Y027953D02*
D03*
X039776D02*
D03*
X039436Y030032D02*
D03*
X039776D02*
D03*
X039436Y029134D02*
D03*
X039776D02*
D03*
D15*
X042559Y028044D02*
D03*
Y027704D02*
D03*
X042205D02*
D03*
Y028044D02*
D03*
X04185Y027704D02*
D03*
Y028044D02*
D03*
X044055Y02857D02*
D03*
Y02891D02*
D03*
X042283Y031863D02*
D03*
Y031523D02*
D03*
X041535Y031863D02*
D03*
Y031523D02*
D03*
D16*
X043622Y031122D02*
D03*
Y030768D02*
D03*
Y029902D02*
D03*
Y030256D02*
D03*
X0436Y028934D02*
D03*
Y02858D02*
D03*
X040157Y030012D02*
D03*
Y029658D02*
D03*
Y029114D02*
D03*
Y02876D02*
D03*
Y027972D02*
D03*
Y028327D02*
D03*
D17*
X041929Y029528D02*
D03*
D18*
X042618Y028583D02*
D03*
X042421D02*
D03*
X042224D02*
D03*
X042028D02*
D03*
X041831D02*
D03*
X041634D02*
D03*
X041437D02*
D03*
X04124D02*
D03*
Y030472D02*
D03*
X041437D02*
D03*
X041634D02*
D03*
X041831D02*
D03*
X042028D02*
D03*
X042224D02*
D03*
X042421D02*
D03*
X042618D02*
D03*
D19*
X040984Y028839D02*
D03*
Y029035D02*
D03*
Y029232D02*
D03*
Y029429D02*
D03*
Y029626D02*
D03*
Y029823D02*
D03*
Y03002D02*
D03*
Y030217D02*
D03*
X042874D02*
D03*
Y03002D02*
D03*
Y029823D02*
D03*
Y029626D02*
D03*
Y029429D02*
D03*
Y029232D02*
D03*
Y029035D02*
D03*
Y028839D02*
D03*
D20*
X037402Y032776D02*
D03*
M02*
